<svg enable-background="new 0 0 46 46" viewBox="0 0 46 46" xmlns="http://www.w3.org/2000/svg"><g style="fill:none;stroke:#2ac4f4;stroke-width:.75;stroke-linecap:round;stroke-linejoin:round;stroke-miterlimit:10"><path d="m22.1 26v.3c0 1.6-1.3 2.9-2.9 2.9h-2.1-5.9-2c-1.6 0-2.9-1.3-2.9-2.9v-5.3c0-1.6 1.3-2.9 2.9-2.9h10c1.6 0 2.9 1.3 2.9 2.9v.3"/><path d="m22.1 26c-.4-.7-.7-1.5-.7-2.3s.3-1.7.7-2.3"/><path d="m11.3 29.1v-.5c0-.7.6-1.3 1.4-1.3h3c.8 0 1.4.6 1.4 1.3v.5"/><path d="m2.9 24.9c0 .8 0 1.5.1 2.6.1 1.7.4 3.8 1.3 5 1.3 1.9 3.4 1.9 4.1 1.9h28c2.5 0 4.5-.8 5.2-4.4.4-2.3.7-5.1.7-6.5 0-1.3-.3-5.5-1-8-.6-2.3-3.4-3-4.9-3h-28c-1.5 0-2.7.2-3.8 1.6-1.1 1.3-1.4 3.8-1.5 5.9-.1.9-.1 1.5-.1 2.2"/><path d="m40.4 22.4c-.6-4.2-4.2-7.4-8.5-7.4-2.1 0-4 .7-5.4 2 0 0 0 0-.1 0-.8.7-1.5 1.5-2 2.5-.7 1.2-1 2.6-1 4.1s.4 2.9 1 4.1c.5.9 1.2 1.8 2 2.5h.1c1.5 1.2 3.4 2 5.4 2 4.3 0 7.9-3.2 8.5-7.4"/><path d="m27.8 24.6c.1.3.2.7.4 1 .3.5.6.9 1 1.2.7.6 1.7 1 2.7 1 2.4 0 4.3-1.9 4.3-4.3s-1.9-4.3-4.3-4.3c-1 0-2 .4-2.7 1-.4.3-.8.8-1 1.2-.2.3-.3.6-.4 1"/><path d="m31.9 22.7c-.2 0-.4.1-.5.2s-.2.2-.2.2c-.1.1-.1.3-.1.4s0 .3.1.4.1.2.2.2c.1.1.3.2.5.2.5 0 .9-.4.9-.9 0-.3-.4-.7-.9-.7z"/></g></svg>