<svg viewBox="0 0 512 512" xmlns="http://www.w3.org/2000/svg"><path d="m0 0h512v512h-512z" fill="#99cdec"/><g fill="#0083cf"><path d="m326.939 143.3a4.616 4.616 0 0 1 -5.86-2.38 29.383 29.383 0 0 1 -3.367 5.956 8.653 8.653 0 0 1 -4.711 1.5c-3.148 3.079-2.618 2.232-4.561 6.36-2.562 5.446-.74 14.184-3.05 18.7-3.323 6.5-8.134 2.791-8.455 12.241-.229 6.752 2.687 13.434 4.061 19.588a6.771 6.771 0 0 1 2.084 2.676 10.249 10.249 0 0 1 -.946 4.48c1.238 3.235-2.169.965.84 3.58 5.224 4.54 18.153-5.19 20.919-9.063 2.04-2.858 3.075-6.2 4.537-9.34 1.656-3.56 6.512-7.971 7.583-11.1 1.843-5.383-6.579-13.851-.271-17.812-5.357.608-8.089-20.736-8.803-25.386z"/><path d="m361.332 259.488c6.027-8.392-8.848-11.236-9.147-17.022-1.128 2.578-6.352 4.612-8.633 6.116-3.447 2.273-9.1 3.022-11.888 5.03-3.057 2.2-3.616 4.184-6.608 6.139a12.849 12.849 0 0 0 -3.7-1 10.673 10.673 0 0 0 -2.729 2.468c-2.184.918-6.129 2.987-7.9 4.713-.569.553-6.33 7.454-6.311 7.393-.761 2.339.3 7.521-.479 10.582q-4.206 1.12-1.294 4.8a4.779 4.779 0 0 1 -4.909 3.644c1.767 3.1 5.013 5.169 5.242 9.036.075 1.265-2.082 2.062-2.14 3-.34 5.5-.189 9.582 6.047 5.715 2.873-1.782 19.088-18.39 19.579-3.827 2.776-5.076-2.209-5.258.238-10.433 1.624-3.437 7.511-4.357 10.168-6.7 3.906-3.443 6-16.34 12.756-10.925a10.5 10.5 0 0 1 1.92-4.878c1.373-2.284.33-2.929 1.507-5.074 2.123-3.876 4.812-5.929 8.281-8.777z"/><path d="m169.054 253.275q-1.836 1.812-3.817 3.463c2.812-.391 3.32.156 3.817-3.463z"/><path d="m177.486 183.345c3.573 3.794 3.061 10.568 6.623 14.087 2.5 2.464 8.392 1.777 8.748 5.406 4.155-1.734-1.878-6.633 6.108-7.726 4.4-.6 9.044 3.884 13.479 2.816 6.251-1.5 4.614-6.471 8.408-10.743 2.354-2.651 6.244-3.629 8.928-5.891 2.587-2.18 4.112-5.805 6.993-7.2 7.917-3.821 9.753.157 9.077-10.473-.093-1.457-.182-7.6-1.032-8.225-2.92-2.135-5.826 2.89-5.921 2.913-4.322 1.065-7.215-.474-11.747-1.778-3.514-1.011-6.268-.614-9.512-2.777-5.249-3.5-2.871-7.145-6.3-10.9-2.893 2.258-6.745 5.758-9.689 7.565 2.67-1.639-5.493 4.056-4.152 2.082a3.943 3.943 0 0 0 -2.933 2.458q3.271 1.52 1.806 4.456c-1.127 2.044-4.744 4.158-6.8 4.75-12.89 3.706-9.581-12.7-18.6-14.987-12.983-3.3-5.323 12.894-2.319 17.018 1.454 2.004 15.282 16.235 8.835 17.149z"/><path d="m250.6 95.563c-5.195.776-12.282 9.906-10.9 15.266 1.178 4.558 5.2 4.893 8.214 8.827 3.467 4.519 3.786 11.808 11.028 12.2 4.841.262 11.773-5.4 15.748-6.963 3.819-1.5 7.922-3.292 12.776-2.247 4.782 1.03 7.567 4.43 9.685.763 2.574-4.458-2.36-11.05-3.768-15.078-2.032-5.811-3.435-14.231-.168-19.895-3.641-1.323-3.8 1.733-6.386 2.439a31.11 31.11 0 0 1 -11.277 1.287c-8.166-.447-15.7-4.71-23.662-4.941a12 12 0 0 1 -1.29 8.342z"/><path d="m365.664 286.1c-2.067.143-10.307-7.919-10.034-9.593-.115.7-2.99 5.2-3.632 5.514-2.428 1.2-5.15-.768-5.864-.344.313 2.8-.27 4.666.318 6.911.5 1.892 2.278 3.451 2.731 5.439 1.127 4.95-1.274 8.429-2.47 13.2-.607 2.425-2.894 10.813-2.409 12.929 1.1 4.807 7.523 4.236 9.494 8.968 2.631-3.242 7.086-3.038 10.352-1.031-1.158-4.738-6.68-9.569-2.914-14.61 2.458-3.291 8.593-3.409 11.762-6.359 4.724-4.4 4.4-6.524 2.031-11.393-1.345-2.761-6.802-8.69-9.365-9.631z"/><path d="m172.475 88.806c-3.973 9.209-2 29.734 12.715 22.877-2.531 2.2-1.2 7.208-2.346 10.051-1.319 3.282-4.351 5.5-5.107 9.051 4.036 2.019 6.882-1.7 10.711 5.243 1.195-2.73 4.437-5.065 7.355-3.006-.909-10.244 10.234-10.2 17.324-11.786 3.568-.8 16.646-9.131 21.735-3.674-.679-6.944-.472-16.414 7.079-19.72-4.147-3.969-5.8-8.662-10.695-11.956-3.971-2.675-8.327-6.422-10.576-8.225-2.652-2.127-4.63-2.522-7.4-5.586-3.447-3.809-9.529-9.3-3.454-13.9-3.815-.414-6.266 2.294-9.708 2.8-2 .293-5.893-1.265-7.414-.955-6.56 1.337-3.683 3.317-5.758 8.844-1.17 3.116-5.358 4.5-5.57 8.119-.126 2.146 3.654 3.821 3.386 5.137-1.41 6.897-5.935 5.38-12.277 6.686z"/><path d="m271.4 320.459c-.225-1.914-.811-7.727-1.134-8.813-.593-1.992-3.948-6.544-6.563-9.352-5.4 3.68 1.088 7.285-4.8 9.855-3.059 1.333-7.956-1.4-11.488-.809-6.762 1.134-22.014 12.927-26.18 1.452-2.571 4.264-5.555-.381-6.573 1.949-.9 2.061 2.566 3.957 2.612 6.756.107 6.638-8.354 9.275-13.175 11.286-3.282 1.369-6.295.861-8.439 4.2-2.072 3.224-.5 19.915-.628 24.081 1.983-1.4 21.731-21.292 23.109-18.833.951 1.7-5.755 5.546-6.746 6.574 5.367 4.194 14.7 11.128 21.766 8.455 4.016-1.519 5.847-6 10.417-7.529.85-.283 6.8.058 7.881-.017 2.81-.2 3.777-3.829 7.166-1.021 1.156-6.281 3.9.553 6.164-.375 4.992-2.047 2.07-2.048 1.9-7.9-.198-6.965 3.93-13.027 4.711-19.959z"/><path d="m250.043 264.68c4.277-1.4 6.08-1.03 9.874.32l.021 2.567a6.948 6.948 0 0 0 5.31.822c2.748.239 5.832-1.55 8.5-1.937 3.582-.519 19.927-3.1 7.789-5.477-3.266-.639-6.8 3.1-10.064 2.327-5.786-1.363-6.19-7.276-8.01-11.909-.645-1.642-.961-4.295-2.237-5.515-1.05-1-2.724-.351-2.816-.423-3.072-2.434-4.879-2.307-6.753-6.887-3.858 2.6-6.941 2.609-10.84 3.979q-2.151-3.871-4.265.064a2.1 2.1 0 0 0 .679 2.424c-.117 1.167 2.388 5.012 2.4 7.212.015 3.431-3.883 3.358-2.26 7.973 4.217-2.5 12.129-1.46 12.672 4.46z"/><path d="m401.646 326.15c-6.317-2.145-4.967-13.9-8.847-17.762-5.145-5.122-10.632 3.834-14.451-2.615 1.979 8.99-7.175 7.146-10.154 9.94-5.9 5.536 4.342 8.935-.126 14.769-1.9 2.484-8.03 1.08-10.413 1.9-.412.141-2.307 3.3-3.707 3.647-2.706.679-6.743-.341-9.378-1.068.41 4.845 18.8 10.891 11.127 17.532 11.944 2.437 22.044-11.187 32.9-7.053-.951-10.408 14.263-9.913 13.049-19.29z"/></g><path d="m231.869 241.978c3.076-6.5 17.32-8.007 22.673-5.926 3.18 1.236 6.079 5.621 10.485 5.211 8.71-.812 2.037-4.033 7.856-8.366-2.6-1.817-6.441-3.222-6.4-7.11.059-5.4 6.871-4.915 7.24-7.143.711-4.293-5.7-4.707-8.223-5.644-16.206-6.009-3.672-11.293-4.626-23.447-.343-4.375-2.614-12.3-6.98-14.555-4.725-2.438-12.257 1.729-17.172 5.136-3.448 2.39-10.115 8.131-12.265 11.618-1.592 2.58-.244 5.5-1.293 8.123-1.24 3.1-5.176 3.82-6.054 7.324 5.666-2.535 6.051 8.587 7.359 12.523 1.679 5.056 4.8 8.482 6.748 12.813 1.78 3.961-6.338 27.962 1.691 27.295-.484-3.448-1.817-8.152 2.342-10-2.673-1.658-4.842-4.575-3.381-7.852z" fill="#00629b"/><path d="m297.962 282.558c7.642-2.475-5.255-11.735 5.278-13.557-5.371-12.414-29.964-18.951-26.5-33.72-4.567 4.646-1.125 12.359-10.522 10.723 2.6 3.955 2.805 8.734 5.141 12.806 5.082-7.761 26.048-.466 16.654 9.829-4.625 5.068-7.194.855-11.18 1.254-6.841.687-10.233 4.788-18.206 2.055 1.009 4.441-2.946 6.957-4.044 10.8-.824 2.882-.689 7.285-.3 10.238 8.686-3.41 12 7.581 16.793 12.019 1.847 1.709 4.109 1.36 5.6 3.494.678.971-2.481 4.917-1.872 5.12 5.127 1.708 7.6-12.584 10.025-15.171 2.8-2.985 6.516-3.7 9.171-7.069 2.973-3.765 2.712-4.24 3.962-8.821z" fill="#004268"/><path d="m295.573 299.713q3.313-.285.108-2.383a1.965 1.965 0 0 0 -.108 2.383z" fill="#0083cf"/><path d="m220.267 413.288c1.751-4.116 5.488-8.5 5.849-13.089.351-4.457-2.689-6.145-3.205-9.565-1-6.606 1.422-16.545 1.645-23.051.115-3.37 2.271-2.265-.917-5.4-1-.981-3.1-.731-4.167-1.592.14.114-3.069-4.007-2.4-3.6-5.8-3.534-8.967-6.122-13.609.823-2.217 3.318-3.241 7.343-5.743 10.506-4 5.051-10.116 8.486-14.853 12.783-4.26 3.865-7.612 7.29-8.69 12.98-.75 3.958 1.317 8.023-2.215 11.094-2.692 2.34-7.886 1.6-11.508 2.111-5.734.8-9.234 1.739-15.075.464-5.6-1.223-13.651-5.4-19.438-3.9-3.793.983-3.7 6.643-10.411 5.009-.059 8.758 19.743 6.292 16.412 15.975 5.407-.688 7.909-4.144 13.593-1.516 2.936 1.356 3.858 5.434 6.489 7.117 3.686 2.358 14.378 1.128 11.019 7.668 2.728.6 4.531-1.023 7.5.39 2.408 1.144 3.117 4.677 5.879 5.826 8.091 3.365 19.423-2.417 23.435-8.554 2.154-3.293 2.021-7.218 6.883-8.123 4.323-.805 5.8 3.536 8.01 3.316 7.765-.767 1.641-13.15 5.517-17.672z" fill="#004268"/><path d="m417.835 307.458c-6.462-2.064-5.781-6.421-13.012-2.514-5.941 3.21-6.5 5.829-2.879 12.159l.606 3.637a2.428 2.428 0 0 1 3.176.731 11.39 11.39 0 0 1 1.264 5.551c-.239 6.711-5.425 7.056-9.429 10.574-3.079 2.7-6.058 7.16-4.179 11.612 3.438 8.145 6.574 1.577 12.354 1.891a12.426 12.426 0 0 1 10.875 9.17c1.65 6.679-3.43 3.668-5.546 9.132 10.1 2.886 18.143 1.732 28.086-.753 4.137-1.035 21.533-4.942 15.353-9.106-2.72-1.832-9.242 1.788-5.143-2.632 2.724-2.936 7.094 1.231 8.523-4.292 3.694-14.281-17.018-.081-17.283-7.222 5.147 1.152 7.76-2.872 11.752-4.914 6.055-3.1 4.816-1.4 10.978-.448 4.785.736 7.4.408 11.34-2.383 1-.706 7.79-7.074 6.164-7.9-2.5-1.271-3.973 2.408-6.395-.321 1.938-2.19 7.107-5.379 4.249-7.9-.635-.561-9.858.532-9.054-.909 1.666-2.988 6.227 1.079 8.238-.018 2.553-1.392-.858-3.761.232-4.623.19-.151 5.145 5.7 6.458 5.687 3.211-.038 5.789-6.209 7.05-8.494-6.95 4.175-59.325 4.988-52.131-11.917a104.486 104.486 0 0 0 -13.745 3.388c-4.077 1.232-4.137-1.795-7.902 2.814z" fill="#004268"/><path d="m407.545 366.721c1.808-4.491 5-2.63 3.561-6.911s-2.176-3.507-5.742-4.278c-3.338-.722-4.6 3.325-8.754 1.864-2.92-1.026-2.817-2.929-4.972-4.608-11.676-9.1-20.554 6.323-33.253 5.206 2.939 3.971-.106 7.856 1.02 11.638q-2.757 3.519 2.2 4.712a30.984 30.984 0 0 1 4.682 2.8c6.057 3.412 16.293 6.019 18.359 13.778 3.18-5.3 8.825-6.319 12.8-1.279 4.676-7.058 4.907-16.143 10.099-22.922z" fill="#339cd9"/><path d="m171.307 284.826c-6.744 10.723-9.082 18.065-4.242 30.1 1.128 2.8 2.487 7.822 5.516 9.251 4.962 2.341 7.074-1.278 12.141 2.736 5.176 4.1 4.24 6.254 11.629 3.975 5.387-1.662 14.932-5.534 15.861-9.475.918-3.895-5.615-9.27.468-13.183 2.751-1.77 3.114 1.68 5.177 1.728 1.737.04 2.222-2.06 4.594-1.387 1.986.564 3.143 3.874 5.35 3.758 4.928-.26 3-4.98 6.217-6.684 3.247-1.718 4.719 1.239 6.53 1.515 1.374.21 2.982.994 5.539.988 5.335-.012 7.914-2.785 10.369-5.9 6.253-7.924-2.042-2.1-6.185-7.582-3.322-4.4 1.648-23.274 4.916-27.075-3.419 1.957-14.307 3.39-11.041-3.915-6.38.418-17.619 4-20.209-4.811-.872-2.967 1.874-7.024 1.7-10.125-.183-3.253-2.447-4.58-1.629-8.282.134-.61 3.217.238 3.27-.817.332-6.623-.868-.227-2.822-5.576-2.083-5.706-9.448-17.225-6.094-22.742-6.361 3.8-5.986-5.834-3.9-9.063-7.378 3.051-8.6-4.346-14.1-2.682-2.7.817-3.261 9.518-7.075 6.215 2.091 5.343-2.247 9.464-6.6 8.783-2.013-.315-4.9-4.908-8.3-5.559-7.34-1.405-19.94 5.991-14.011 14.149 3.768 5.184 11.128 2.868 9.987 11.235-.336 2.468-12.43 17.442-10.95 18.323 4.47-4.07 14.128-4.828 9.289 3.923-3.231 5.843-13.627 1.566-15.1 8-1.556 6.812 8.976 8.1 12.812 10.013 6.186 3.077 5.821 2.328.893 10.166z" fill="#339cd9"/><path d="m394.278 401.438c2.115-4.716-1.383-7.062-2.537-11.289-4.871 3.306-3.713 6.032-9.629 4.062-2.981-.993-6.594-5.077-7.506-7.8-.214.743-1.989 5.132-3.3 4.75-6.586-1.918-.265-.859-2.983-4.589-2.986-4.1-8.565-6.218-11.6-10.5-1.373 3.918-8.79 6.722-11.908 9.638-5.864 5.484-2.032 3.671-2.5 11.116-.544 8.577-6.582 3.908-7.507 7.05-1.448 4.918 4.548 10.394 8.305 11.852 9.433 3.663 22.829-2.374 31.121-6.562 6.985-3.528 5.514-1.911 12.171-.575 6.453 1.302 8.752-.374 7.873-7.153z" fill="#0083cf"/><path d="m411.981 222.423c-6.1 2.64-9.09 1.693-8.8 8.309.257 5.886 3.562 11.942 3.8 18.184 6.41-3.212 8.258 2.573 13.227 4.644 3.869 1.613 4.875 1.191 8.923 1.3 3.337.093 20.1-1.44 11.36 5.585 5.782 2.181 14.1.606 20.433 1.561 6.583.993 12.468 2.449 18.574-.954 7.993-4.456 14.886-16.623 26.312-11.8-6.423-4.334 1.1-13.5 6.192-8.255-2.693-13.138-12.851-24.476-25.075-29.617-4.376-1.841-26.687-4.1-28.128-8.762 2.276 2.709.1.765-1.962.621-3.3-.231-6.573-.341-9.883-.328-5.123.021-14.1-1.053-18.827 1.283-4.004 1.981-11.846 25.006-16.146 18.229z" fill="#00629b"/><path d="m418.666 270.8c-2.5-4.547-.733-6.682-1.432-10.66-1.317-7.492-2.6-4.044-7.873-6.319s-6.044-3.419-7.623-9.1c-1.021-3.669-4.7-14.925-3.615-17.948-4.021.984-4.1 6.094-7.563 7.948-3.107 1.664-8.555 1.134-12.032 1.3-6.266.3-21.767-3.232-21.532 5.732 7.478-3.429 15.258 23.081.243 27.264a49.828 49.828 0 0 0 7 8.407 4.8 4.8 0 0 1 1.163 3.556q2.913-1.269 4.718.85c2.349 2.3 2.937 5.348 4.906 7.6 1.231 1.406 4.492 1.4 5.35 2.819 1.746 2.887-.058 10.88 3.068 12.285 4.36 1.961 7.31-5.909 12.621-.2.438-1.578 6.041-3.987 7.548-4.46 5.22-1.64 8.616-5.325 13.44 1.637-1.976-6.441 3.113-8.358 5.025-13.243 3.1-7.908 1.349-2.094-4.024-3.507-3.056-.8-7.811-3.76-5.251-8.553 3.576-6.694 6.231 1.56 10.467-.035a7.089 7.089 0 0 1 -4.604-5.373z" fill="#339cd9"/><path d="m153.859 355.355c-5.382 2.674 2.34 7.762 4.292 8.635 1.228.549 4.014.241 5.538.773 2.483.866 3.737 4.638 6.631 4.7 1.757.037 1.883-1.082 3.112-1.159l1.989-2 2.533 1.285c5.295-1.341 11.1-1.3 14.856-5.208-4.522.3 1.207-18.676-.873-23.136-1.525-3.268-11.991-11.46-14.681-11.383-6.787.194-6.76 13.64-16 14.075-3.97.188-6.566-4.258-8.788.821-1.72 3.928 3.958 8.264 1.391 12.597z" fill="#0083cf"/><path d="m114.946 359.926c5.843 3.026 6.5 12.971 12.385 17.458 7.5 5.723 15.483 8.968 24.964 8.265 7.4-.549 12-2.372 13.406-10.231.854-4.788 2.854-1.305.361-4.327-2.858-3.465-5.253-.6-8.065-1.556-5.63-1.924-9.181-4.419-9.959-11.849-.492-4.708 4.366-11.775.164-16.088-4.975-5.108-14.415 1.811-19.549 3.607-7.34 2.567-10.238 2.11-15.835-3.86-2.384 4.453-5.728 2.139-9.1 4.569-2.738 1.97-3 5.7-5.467 7.728-3.752 3.081-14.123 2.669-16 6.395-5.458 10.815 18.772 5.77 22.574 5.52-5.008-5.02 7.123-9.717 10.121-5.631z" fill="#339cd9"/><path d="m312.619 382.147c10.162 1.092 20.666 6.319 30.118.157 8.141-5.307 13.206-12.212 10.991-21.569-.947-4-1.669-9.988-3.491-13.663-2.232-4.5-7.517-6.826-10.438-10.838-2.193-3.012-5.841-9.8.929-10.034 3.76-.131 4.234 5.964 8.8 4.427-2.013-4.946-8.964-3.5-10.4-9.183-.7-2.774 2.1-13.638 2.751-16.662.713-3.307 6.524-8.9.7-12.4-4.558-2.741-8.211 4.483-12.088 6.3 4.791 3.433 1.242 12.352-4.278 12.237-5.41-.112-4.881-8.227-11.977-3.383-4.436 3.029-3.665 10.358-11.883 9.457-8.108-.888-6.872-7.961-8.258-14.655-6.176 1.734-5.674-2.208-9.252 4.627-2.2 4.2-3.877 8.083-6.316 12.116-2.5 4.144-4.823 8.066-6.017 12.9-1.494 6.047 1.026 7.954 1.157 13.6.179 7.713-2.787 12.145 2.627 20.069 2.751 4.026 6.251 7.749 7.861 12.454.251.736-1.833 2.258-1.638 2.792.881 2.411 3.325 3.522 3.781 6.219 5.302-10.356 19.813 2.699 26.321-4.968z" fill="#00629b"/><path d="m281.711 387.082c-2.9-1.894-7.485-7.73-1.982-9.677-3.453-2.8-9.064-11.285-10.732-15.6-2.6-6.731 2.294-9.344-7.892-7.883-5.035.722-15.726.247-18.463 1.418-1.447.619-5.812 5.435-7.139 6.433a33.011 33.011 0 0 0 -3.878.03 3.656 3.656 0 0 0 -1.276 3.5c-7.83 10.327 3.584 28.336-1.073 40.393-2.307 5.973-5.239 6.763-2.722 11.3.9 1.618 5.3 3.4 6.819 4.812a36.359 36.359 0 0 1 7.627 10.535c5.54-4.428 15.057-7.162 22.055-5.489 8.6 2.055 11.759 11.051 9.611-4.058-.78-5.484-6.554-15.1-3.369-20.45 1.071-1.8 5.46-3.246 7.191-5q4.407 1.037 2.827-3.821a7.345 7.345 0 0 1 2.396-6.443z" fill="#0083cf"/><path d="m244.612 143.875c5.288-5.292 5.383-9.234 2.7-15.11-2.363-5.172-4.526-7.061-8.453-8.424-3.244-1.126-2.768 7.224-7.122.477-.093.083-1.636 4.3-1.745 4.292-.541-.023-4.1-.626-3.961-.656-.8.168-4.714-.224-7.446.5-4.27 1.133-30.28 5.946-13.4 13.122l2.24 2.225a4.88 4.88 0 0 1 3.322-2.13c1.6.56 2.48.538 4.052 1.7 2.836 2.093 2.518 7.328 5.336 9.548 4.932 3.885 14.128 2.966 18.751 1.961 8.028-1.747 2.97-1.509 5.726-7.505z" fill="#00629b"/><path d="m325.826 455.049c-.528-.593.127-1.292-1.367-.878q1.749 2.88 1.367.878z" fill="#0083cf"/><path d="m56.726 222.49c3.37-4.257 8.2 2.324 12.077-.8 6.528-5.27 3.872-11.176 15.693-11.2 8.352-.018 7.033 2.028 8.584 8.733.633 2.742.527 6.021 2.35 8.374 1.76 2.273 7.264 2.647 7.984 3.861-10.605 5.368-11.384 25.03 2.686 18.742 8.914-3.983 4.022-6.346 8.873-13.263 4.36-6.216 11.968-1.579 15.574-7.966 4.057-7.186-2.415-11.879 6.727-17.458 6.354-3.878 13.366-1.418 20.241-2.344 5.973-.8 11.623-5.947 17.394-5.581 3.258.206 12.273 4.3 13.1 7.21 5.459-4.658-5.571-9.143-8.318-12.741-1.541-2.019-9.831-18.071-4.382-18.829-7.765-10.885-17.975-22.444-32.147-18.383-5.681 1.627-10.6 4.513-16.7 3.813-1.469-.168-11.56-4.958-13.2-3.888a3.48 3.48 0 0 0 1.761 3.643c-15.276 7.8-28.47 10.069-37.213 26.2-4.1 7.569-6.847 11.286-13.843 16.572-6.352 4.8-12.221 8.664-15.06 16.566 2.281 1.989 5.393-1.897 7.819-1.261z" fill="#0083cf"/><path d="m23.087 332.434c3.341 7.307-1.382 6.242-4.422 10.8-4.139 6.207-.7 1.1 1.076 8.279-.058-8.422 16.387 1.12 19.867-3.018-3.929 4.671-11.479-.217-15.559 3.689.108-.1 7.748 7.548 8.512 7.779 5.344 1.613 5.2-2.025 9.606-3.377 6.041-1.852 7.027-1.973 11.692-6.211 6.374-5.79 10.158-3.934 18.481-5.442q-1.992-1.373-.689-3.208a3.112 3.112 0 0 0 4.527-.988c-.28 2.539 3.1 3.829 3.769 5.962q-1.379 1.363-2.744-.22c-2.6 5.083 7.41 6.216 10.567 6.088 6.979-.284 4.83-2.174 10.363-7.422 1.89-1.793 9.869-7.913 12.742-8.049 6.764-.32 7.933 4.9 15.25 3.536 7.827-1.461 14.193-5.36 22.349-4.786 7.362.518 19.174 3.622 19.676-7.711.392-8.849-8.559-16.727-8.059-26.465.447-8.692 6.128-16.364 10.336-23.62-13.58 1.556-26.366-17.591-7.486-20.955-12.321-2.584 5.645-19.384 7.829-23.7-9.095-5.632-13.389-8.6-9.862-19.822-8.07 2.766-18.389-3.207-24.647 5.968-2.912 4.268.332 10.536-2.487 14.448-3.344 4.641-8.988.874-12.658 4.1-3.967 3.492-1.539 10.2-6.342 13.721-3.42 2.507-7.733.561-11.372 2.214-9.172 4.166-6.394 18.462-11.866 26.091-7.136 9.95-19.682 15.485-30.754 19.518-9.717 3.539-15.194 13.323-25.372 14.29-3.211.306-4.872-1.072-8.142.374-3.577 1.583-7.766 6.567-10.909 8.867-13.931 10.196 2.114 3.267 6.728 9.27z" fill="#00629b"/><path d="m47 512c4.734-5.925 1.785-5.931 8.36-8.054 4.522-1.461 18.414-4.287 23.113-3.456 2.844.5 5.551 3.568 8.1 3.659 3.457.123 4.805-3.393.555-4.4 5.178-1.952 11.152 6.219 15.877 7.514 3.817 1.046 5.065.5 8.83 2.707a9.464 9.464 0 0 1 2.165 2.03h13.206a34.344 34.344 0 0 1 2.878-4.217c1.525-1.78 6.315-4.174 7.171-6.06 2.672-5.89-1.346-5.128-1.743-10.9 3.323-.274 10.889-22.339 6.541-24.647 4.457 2.366.929 6.417 7.281 5.99 1.887-.127 5.808-4.606 8.032-5.548 3.948-1.673 16.3-1.383 17.774-6.474.086-5.806 2.353-6.75-.945-11.469-2.12-3.033-6.053-2.506-6.2-7.041-3.7 1.794-10.7.8-9.338-4.795-8.615 1.886-12.214-8.952-19.8-9.657-3.4-.317-15.771 5.01-11.013-4.109-9.07-3.3-12.2-6.949-17.325-14.077-3.265-4.543-1.276-5.222-9.94-4-12 1.688-11.181 4.784-12.81 13.639-.852 4.631-2.111 9.7-7.345 11.25-5.264 1.556-9.559-3.427-14.779-2.632-.189 11.3-.264 23.356-8.224 32.247-4.845 5.412-8.925 12.47-14.676 16.118-3.148 2-7.658 1.411-10.448 4.441-2.969 3.225-3.453 8.387-5.51 12.064-4.251 7.607-10.932 14.468-17.787 19.877z" fill="#00629b"/><path d="m79.236 184.431c4.518-2.557 18.151-12.9 18.931-18.13.7-4.7-1.662-2.291-5.363-3.365-6.925-2.009-4.582-3.664-9.428-9.236-7.387-8.494-20.824-4.251-21.162 7.117-.247 8.283 6.914 24.363 17.022 23.614z" fill="#0083cf"/><path d="m222.983 0a14.113 14.113 0 0 1 .418 1.957q2.909.613 1.168 2.569a3.975 3.975 0 0 0 -.2 4.334c1.978 4.281 11.377 8.873 9.838 13.9-.933 3.044-3.668.436-5.261 2.431a33.749 33.749 0 0 0 -4.275 6.686c-1.043 2.039-2.93 5.759-3.106 7.93-.193 2.366 2.423 4.966 1.744 7.225-.474 1.577-15.279 7.48-18.9 8.4-5.493 1.4-7.9-1.287-13.352-.5-4.082.587-7.27 4.137-11.175 5.105-2.545.63-1.807.777-4.18.91-.13.007-2.939-2.331-3.27-2.227-3.532 1.103-8.432 18.609-13.781 10.071-1.774-2.831 3.707-18.158.443-19.182.349.11-3.2 7.387-5.356 7.581-3.377.3-7.044-7.1-7.964-9.7 1.768-12.606-13.542-17.468-15.351-28.814-1.054-6.61 1.918-12.765 5.424-18.676z" fill="#004268"/><path d="m484.522 384.879c-12.926-1.167-25.6 8.171-38.389 3.114 8.021 2.288 13.137-4.9 3.705-7.887-4.572-1.445-6.321-.158-9.826 1.512-2.357 1.123-4.844 7.589-8.953 3.132-5.06-5.488 15.545-4.882 5.807-9.52-5.755-2.741-13.869 4.717-19.551 3.061 3.456-4.883-7.216-4-9.377-2.279-2.449 1.953-2.583 7.272-3.616 10-1.059 2.8-4.695 6.549-5.307 8.8-.676 2.481.392 10.562.73 13.435 3.109-1.773 14.095 1.653 17.374 2.608 7.464 2.175 11.621 9.155 19.36 11.036 3.676.894 7.811-.118 11.465 1.105 2.041.683 5.087 3.756 6.652 4.2 6.033 1.694 5.736-1.694 11.5-5.033 8.658-5.017 22.463-4.6 23.552-17.263.277-3.227-1.572-6.293-1.32-9.438.18-2.254 1.964-4.59 2.061-6.6.238-5.016 2.411-4.875-5.867-3.983z" fill="#00629b"/><path d="m304.573 0c-.36 2.536-1.11 5.317.638 7.274a27.268 27.268 0 0 1 5.009-3.23c5.029-.352 12.619 5.981 17.455 7.6-3.751 2.283-3.367 6.046-6.5 7.539-2.915 1.389-7.284-.141-10.4-.371-6.6-.487-10.469 2.041-16.262 2.174-11.938.275-6.23-13.194 1.258-20.982z" fill="#0083cf"/><path d="m512 264.333c-1.726 6.907-4.347 13.617-5.935 21.086-1.652 7.771-.733 21.433-10.688 24-5.2 1.338-15.207.362-21.156.96-6.494.653-18.577 1.957-24.341-.728-10.3-4.8-4.112-12.965-18.059-11.111-10.087 1.342-12.794.551-6.44-7.682 2.28-2.954 3.909-4.442 4.119-8.149.031-.536-2.456-3.935-2.507-4.1-.42-1.34.018-4.217-.666-6.21-1.445-4.215-7.92-7.026-5.749-10.8 2.426-4.222 12.262-2.862 16.05-3.359-5.153 7.876 7.924 6.206 11.712 6.646 9.015 1.047 18.9 4.158 28.143 2 5.509-1.288 7.754-5.058 12.078-8.164 4.407-3.165 6.938-3.008 12-4.217 4.316-1.032 15.973-5.039 7.279-9.763a33.052 33.052 0 0 1 4.16.258z" fill="#0083cf"/><path d="m254.743 137.576c-8.6 2.519-7.806 23.909-3.676 29.658 3.937 5.481 9.423 5.926 12.056 13.22 2.362 6.547 2.423 11.2.458 17.5-5.34 17.124 9.426 5.944 14.582 16.631 3.248 6.73-5.075 5.7-6.034 9.772-.339 1.441.887 5.105 3.513 3.589 2.229-1.286.353-3.852 2.1-5.47-2.521 2.329 1.8-1.207 2.6-1.443a11.215 11.215 0 0 0 6.327-3.41c3.957-3.881 4.035-9.69 11.127-9.359-6.251-5.974-4.974-17.047-4.426-23.716.366-4.456-.36-6.489 2.257-10.474.811-1.233 4.562-.446 5.379-1.618 1.95-2.8-1.6-6.75 1.691-10.327-5.091 1.286-11.432-1.97-16.626-1.806-6.792.214-9.944 1.974-15.15-3.189-1.6-1.584-.72-4.475-1.874-5.954-1.088-1.4-3.914-2.58-5.282-4.238-3.13-3.792-3.439-9.442-8.625-11.464z" fill="#004268"/><path d="m457.148 435.962c-4.4-10.359-18.45-6.728-26.344-10.51-5.647-2.7-9.026-9.175-15.338-10.648-2.388-.558-5.226.731-7.671.33-1.855-.305-4.706-3.412-4.99-3.443-3.289-.364-7.579 1.505-11.167 1.329-3.043-.148-6.092-1.287-9.12-1.227-6.46.128-12.219 3.513-18.175 5.565-13.874 4.779-33.578-.816-36.292 18.5-.869 6.184 1.352 10.834 3.462 16.487 1.82 4.875-4.059 5.863 4.577 4.409 15.779-2.656 29.006-10.979 45.853-6.843 6.615 1.624 13.2 6.358 19.814 7.369 7.871 1.2 8.274-4.081 14.432-7.947 6.308-3.961 15.192-4.815 22.122-8.046 6.975-3.252 11.779-4.833 19.689-2.93z" fill="#004268"/><path d="m290.206 458.454c-3.017 4.485-9.932 1.7-12.47 7.252 13-2.567 19.851 19.431 30.92 1.309 3.032-4.964 4.274-7.12-2.861-10.3-3.985-1.77-12.824-2.492-15.589 1.739z" fill="#00629b"/><path d="m323.069 448.542c2.128-4.475-.348-11.129 1.052-16.244 1.734-6.335 8.3-9.531 10.081-14.749.841-2.46-10.453-24.251 3.72-19.439 1.427-10.393-15.816-10.5-22.829-10.328-6 .147-23.681-1.858-29.464 4.419-1.77 1.92-.214 5.024-2.289 7.835-2 2.711-3.587.13-5.107 1.413-6.8 5.733-2.872 7.381-1.223 16.184.873 4.662 3.056 16.647-2.814 18.8-4.218 1.55-15.437-4.782-20.069-5.245 1.523 4.09 14.386 5.478 7.153 11.465 4.248 1.687 1.377 4.683 3.164 7.438.982 1.515 1.659 2.085 2.517 3.265 3.465 4.768 6.909 6.785 12.655 5.695 3.66-.695 12.442-4.077 13.785-7.906 2.255-6.429-6.545-7.142-8.759-12.1 1.694 3.795 12.958 9.047 16.7 10.982 11.818 6.116 1.613-6.318 11-3.255-2.064 1.5-3.236 7.041.766 5.5.906-.348 3.254-7.236 4.7-5.7 1.838 1.958-2.926 6.818-.518 8.133s4.83-8.375 3.855-8.2a7.978 7.978 0 0 1 1.924 2.037z" fill="#0083cf"/><path d="m265.142 458.962c-4.588-1.5-3.573-4.185-5.532-7.541l.652-3.577q-2.874.39-3.128-1.813c-1.45-4.306-.5-9.874-7-11.454-5.187-1.261-7.936 3.566-13.2.759-5.5-2.938-4.594-12.155-12.143-13.53q1.379 4.24-2.657 6.222a2.038 2.038 0 0 1 1.272 1.927c-.845 1.515-1.036 2.637-2.554 4.076-6.554 6.209-8.757-2.857-11.554-2.4-7.166 1.17-1.959 8.692-5.922 12.5-4 3.85-18.265 3.8-22.979 4.888 7.071 1.147-.824 7.975-.862 11.486 10.954-2.411 36.446 10.22 33.869 23.7 5.911-4.492-3.494-11.572 6.17-14.517 5.135-1.565 13.271 2.71 18.368 3.906 4.09.961 11.909 3.634 13.425-2.294 1.064-4.159-9.614-10.191-10.6-8.446 2.787-4.951 8.74-.1 12.573-.086 3.348.015 9.252-1.66 11.802-3.806z" fill="#339cd9"/><path d="m321.545 121.251c-13.075-4.162-19.072 9.534-30.341 7.86-4.11-.61-7.6-2.686-12.076-1.347-1.614.483-1.335 2.395-2.554 2.918a85.615 85.615 0 0 1 -13.755 4.85c1.283 8.167 15.4 12.752 13.783 21.539 6.12.675 12.148-1.732 18.447-.8 8.033 1.192 6.542.963 10.372-5.634 1.698-2.924 25.372-23.288 16.124-29.386z" fill="#0083cf"/><path d="m115.643 404.39c1.477.117 3.575 1.181 3.529-.793a34.928 34.928 0 0 0 -3.529.793z" fill="#0083cf"/><path d="m181.219 157.569c5.13 10.581 9.737-15.317 17.459-9.72-.844-2.492-.485-5.85 2.6-6.587-1.7-1.806-5.681-4.1-8.279-4.125-.645-.006-.47 3.992-2.781 3.822-2.9-.214-4.032-2.383-6.266-3.183-1.036-.371-3.437-.342-4.145-.742-13.332-7.535.187-10.632.038-20.3-17.145 8.22-13.371 31.955 1.374 40.835z" fill="#0083cf"/><path d="m354.122 230.706c-11.693-1.654-24.237-17.492-21.875-29.324-3.831 9.374-9.809 14.133-18.574 17.4-6.628 2.473-17.877 5.314-16.957-6.284-5.149 1.953-6.575 8.509-10.435 12-2.173 1.964-3.6.807-5 2.862-2.725 4-.334 4.183.052 8.168 1.353 13.967 18.026 15.582 24.194 28.447 4.917-3.2 9.364-6.39 14.419-9.195a4.552 4.552 0 0 1 3.884.35l.979-3.291c2.245-1.032 2.714-1.611 5.411-2.517 2.567-.863 5.047.1 7.61-1.256 1.286-.679 1.416-3.133 2.644-4.06 4.082-3.08 11.048-12.019 15.373-13.21z" fill="#0083cf"/><path d="m288.728 0a38.762 38.762 0 0 0 -5.328 13.9c-.478 3.23 1.875 6.148-2.288 7.29-2.886.791-6.233-3.95-8.568-4.958-3.291-1.421-12.116-3.364-12.147 2.788-2.85-1.7-6.814 3.857-10.113 4.415-.106.018-11.474-.338-11.53-.371.028.016-3.292-8.251-4.016-9.218-2.321-3.1-8.314-5.9-4.8-10.489a6.534 6.534 0 0 0 -1.038-3.357z" fill="#0083cf"/><path d="m353.005 239.782c.526-1.525-.625 1.739-.692 1.946a8.842 8.842 0 0 0 .692-1.946z" fill="#0083cf"/><path d="m371.4 61.351c-2.533 5.708-10.726 1.781-14.346-.254-1.487 7.833-10.964 9.825-16.03 13.717-3.771 2.9-1.107 3.352-6.6 4.415-3.547.688-6.49-2.92-9.875 1.15-3.805 4.577-1.027 18.927-1 24.21.05 8.219-1.2 11.324-10.8 12.06 5.5-.025 12.35-1.5 14.779 4.751 1.917 4.93-4.82 13.624-3.239 15.751 3.477 4.676 7.326-2.85 11.519-4.022 4.721-1.319 10.972.2 8.778 6.447 8.629.309 5.147-6.886 7.7-10.355 2.131-2.9 4.308-1.9 6.548-3.186-1.953 1.125 6.6-3.865 5.085-3.387 13.15-4.156 5.921 11.926 13.2 16.309 1.569-2.625 1.905-7.583 5.98-7.587-7.61-4.831-10.725-14.588-20.875-14.622-5.171-.018-9.415 1.677-14.543 1.352-.3-.019-9.036-.279-9.094-.322-2.8-2.071 7.707-3.556 8.477-3.583 3.577-.124 5.229 1.734 9.246 1.322 3.62-.371 6.906-2.969 10.714-2.382 8.012 1.235 9.708 9.571 18.649 10.575 1.164.13 18.753 1.61 12.385 7.775 12.917-12.505-51.176-55.224-14.729-64.8-2.061-3.553-8.167-4.862-11.929-5.334z" fill="#0083cf"/><path d="m329.939 15.358c-3.181 1.85-2.054 5.567-4.764 7.159-4.74 2.782-10.971-.028-15.87-.418-6.606-.525-7.83 1.678-13.208 3.189-4.076 1.146-6.135.172-10.092.087-4.893-.106-6.007.984-10.59-.732-4.058-1.52-3.768-5.179-9.056-4.1-4.975 1.017-8.478 6.221-13.655 7.531-6.827 1.727-12.867-3.893-20.061 1.5-3.208 2.406-3.489 3.348-4.494 7.092q-3.635 1.482-.859 3.716a12.459 12.459 0 0 1 1.02 4.216c-.322 9.663-5.61 7.711-12.135 12.9-10.2 8.106 2.206 6.81 1.543 14.73 5.691-2.435 7.661 4.432 11.26 7.124 6.254 4.676 10.724 5.782 14.9 14.4 4.168-2.183 1.682-6.8 4.8-9.7 3.64-3.392 5.537-.83 8.747-.165 8.847 1.832 17.694 6.122 27.435 2.936 8.663-2.834 11.571-4.591 11.693 6.458.055 5.012.506 10.277 2.792 14.828 2.35 4.679 6.013 5.236 2.215 10.936 6-.155 3.357-3.051 7.633-5.415 1.345-.744 6.632-1.807 7.524-2.876 4.37-5.233.54-17.241 1.259-23.49 1.049-9.112 4.126-11.573 12.356-13.919a7.563 7.563 0 0 1 5.256 1.042q2.032-2.8 4.117-5.56c3.083-2.717 7.249-2.382 10.114-4.779 2.883-2.412 2.538-7.425 6.406-8.324 3.7-.86 5.374 4.472 8.972 3.911 8.536-1.334-.131-7.1-2.508-10.057-6.2-7.706-6.744-18.123-13.523-25.587-3.106-3.419-14.245-13.428-19.227-8.633z" fill="#00629b"/><path d="m336.688 168.413a3.634 3.634 0 0 1 1.486-.922c-1.148-.006-1.774 1.271-1.486.922z" fill="#0083cf"/><path d="m387.975 135.043c-6.791.92-5.02 14.926-13.835 9.048-5.5-3.669-1.73-14.025-7.561-17.191-1.3 2.666-3.735 5.262-7.025 4.831 3.56 7.65-22.883 19.082-19.193 5.569-12.842-3.606-2.573 21.712-4.787 25.91 6.923-2.958 9.63 7.366 2.206 9.461 5.815 6.2.789 13.866-1.108 19.458q-4.821 1.95-1.216 6.5a56.615 56.615 0 0 0 1.528 8.58 52.7 52.7 0 0 0 2.878 6.707c2.939 6.246 4.144 6.827 10.4 9.345 3.887 1.566 14.3 4.1 9.03 10.169 7.525-2.265 22.715.791 28.637-3.6 2.119-1.573 1.745-4.026 3.449-5.423 3.557-2.917 8.721-1.433 12.09-4.439-3.727-4.066-7.63-10.439-13.968-6.665 3.515-13.6 20.663-17.443 23.856-30.934 4.412-18.653-13.594-35.897-25.381-47.326z" fill="#004268"/></svg>