<svg height="375" viewBox="0 0 1000 375" width="1000" xmlns="http://www.w3.org/2000/svg"><g fill="none" fill-rule="evenodd"><path d="m0 0h1000v375h-1000z" fill="#000" fill-rule="nonzero"/><g transform="translate(36.25 42.5)"><g fill-rule="nonzero"><path d="m927.4375 36.75v156.875c0 20.0625-16.3125 36.4375-36.4375 36.4375h-854.25c-20.0625 0-36.4375-16.3125-36.4375-36.4375v-156.875c0-20.0625 16.3125-36.4375 36.4375-36.4375h854.25c20.0625 0 36.4375 16.3125 36.4375 36.4375zm-38.625 138.6875 1.5625-4c-3.0625-1.4375-6.25-2.125-9.5625-2.125-3.1875 0-5.75.8125-7.6875 2.4375s-2.9375 3.8125-2.9375 6.4375c0 1.875.5 3.4375 1.5625 4.8125s2.8125 2.75 5.3125 4.125c2.25 1.3125 3.6875 2.375 4.375 3.125s1 1.6875 1 2.8125c0 1.5-.625 2.75-1.875 3.6875s-3.0625 1.4375-5.5 1.4375c-1.375 0-2.8125-.25-4.375-.6875s-3-1.0625-4.375-1.875v4.5625c2.625 1.3125 5.5625 2 8.875 2 3.875 0 6.875-.875 9.0625-2.5625 2.125-1.6875 3.1875-4.0625 3.1875-7.0625 0-1.1875-.1875-2.25-.6875-3.25-.4375-.9375-1.125-1.875-2-2.6875s-2.375-1.8125-4.4375-3c-2.125-1.1875-3.5625-2.1875-4.25-3-.6875-.75-1.0625-1.6875-1.0625-2.8125 0-1.3125.5-2.4375 1.5625-3.25s2.4375-1.25 4.25-1.25c2.3125 0 4.4375.4375 6.375 1.25zm-14.25-127.6875c0-2.5625-.6875-4.5625-2.0625-5.9375s-3.3125-2.125-5.875-2.125c-1.9375 0-3.75.5-5.5625 1.5625-1.75 1-3.5625 2.75-5.375 5.125h-.3125c.5-2 1-3.8125 1.375-5.5s.75-3.3125 1.125-4.8125c.3125-1.5625.6875-3.0625 1-4.5625s.6875-3 1-4.625h-4.875l-9.5625 45.125h4.875l2.9375-13.75c.625-3.0625 1.5625-5.6875 2.8125-7.875s2.6875-3.875 4.3125-5 3.3125-1.6875 5-1.6875c2.875 0 4.25 1.4375 4.25 4.3125 0 .8125-.1875 2.125-.5 3.9375l-4.3125 20.0625h4.875c2.0625-9.25 3.4375-15.75 4.1875-19.5.4375-1.9375.6875-3.5625.6875-4.75zm-10.9375 128.875c0-2.3125-.75-4.125-2.25-5.375-1.5-1.3125-3.6875-1.9375-6.6875-1.9375-2.875 0-5.5.9375-7.875 2.8125s-4.3125 4.4375-5.75 7.8125-2.1875 6.8125-2.1875 10.5c0 3.75 1 6.625 3.0625 8.75s4.8125 3.1875 8.375 3.1875c1.6875 0 3.1875-.1875 4.625-.5 1.375-.3125 3-.9375 4.8125-1.8125v-4.25c-1.9375.9375-3.5 1.5625-4.8125 1.9375s-2.5625.5-3.75.5c-2.5 0-4.3125-.6875-5.5-2.125s-1.8125-3.375-1.8125-5.9375l.125-2.3125h.9375c6 0 10.5625-1 13.8125-3s4.875-4.75 4.875-8.25zm-19.625-132.6875.75-3.6875h-7.9375l1.625-7.3125h-2.875l-3.625 6.625-5.375 2.25-.4375 2.125h5l-3.6875 17.4375c-.375 1.625-.5 3.0625-.5 4.375 0 2.3125.625 4 1.9375 5.125s3.125 1.75 5.5625 1.75c.5625 0 1.375-.125 2.3125-.3125 1-.1875 1.8125-.4375 2.4375-.6875v-3.75c-1.75.5-3.125.75-4.1875.75-1 0-1.8125-.3125-2.375-.875s-.8125-1.4375-.8125-2.5c0-.875.1875-2.125.5-3.8125l3.75-17.5zm-16.9375 157.75 9.625-45.125h-4.875l-9.625 45.125zm3.0625-92.4375 1.0625-4.3125c-1-.25-2.125-.4375-3.5-.4375-1.25 0-2.3125.1875-3.3125.6875-1 .4375-1.9375 1.0625-2.875 1.875s-2.0625 2.125-3.4375 3.9375h-.3125l.625-5.875h-4l-6.8125 31.8125h4.875l3.125-14.5625c.5625-2.5 1.375-4.8125 2.5625-6.875 1.125-2.0625 2.5-3.6875 4.0625-4.8125 1.5625-1.1875 3.1875-1.75 4.9375-1.75.9375-.0625 2 .0625 3 .3125zm-7-78.1875c0-1.75-.875-2.625-2.5625-2.625-1 0-1.8125.3125-2.375 1-.625.6875-.9375 1.5625-.9375 2.625 0 .875.25 1.5625.75 2 .5.5 1.125.6875 1.9375.6875.875 0 1.625-.375 2.25-1.125.625-.5625.9375-1.5.9375-2.5625zm-9.1875 41 6.8125-31.8125h-4.875l-6.8125 31.8125zm-2.4375 129.625 6.6875-31.8125h-4.8125l-2.875 13.75c-.6875 3.0625-1.625 5.6875-2.875 7.8125-1.25 2.1875-2.6875 3.8125-4.375 5-1.625 1.1875-3.3125 1.75-5 1.75-2.875 0-4.25-1.375-4.25-4.125 0-1 .1875-2.3125.5-4.0625l4.375-20.125h-4.9375l-4.25 19.625c-.4375 2.125-.625 3.75-.625 5 0 2.5.6875 4.375 2.125 5.75 1.4375 1.3125 3.375 2 5.8125 2 1.8125 0 3.625-.5 5.3125-1.4375 1.75-.9375 3.5625-2.625 5.4375-5.0625h.3125l-.625 5.875h4.0625zm-17.125-129.625 14.6875-31.8125h-5.1875c-5.1875 11.625-8.3125 18.6875-9.375 21.25s-1.875 4.6875-2.4375 6.3125h-.1875l.0625-1.1875v-1.5625c0-1.8125-.0625-4.375-.1875-7.5625l-1.0625-17.25h-5.25l-8.5625 18.25c-1.75 3.8125-3.0625 6.9375-3.9375 9.3125h-.1875c.125-2.375.25-4.9375.25-7.8125v-2.5l-.5-17.25h-4.75l1.25 31.8125h5.875l8.4375-18.0625 2.4375-5.5 1.4375-3.4375h.25v4.5625c0 1.5.0625 3.1875.125 5l.9375 17.4375zm2.875 64.8125 6.75-31.8125h-3.6875l-1.9375 5h-.3125c-.75-1.8125-1.875-3.1875-3.25-4.125s-3-1.4375-4.75-1.4375c-2.875 0-5.5 1-7.9375 2.9375s-4.3125 4.625-5.6875 8.0625-2.0625 7.1875-2.0625 11.1875c0 3.3125.75 5.9375 2.3125 7.875 1.5 1.875 3.625 2.875 6.3125 2.875 3.8125 0 7.5-2.1875 10.9375-6.625h.25l-.75 6.0625zm-20.4375 64.8125 9.5625-45.125h-4.8125l-2.25 10.375c-.5625 2.3125-1 4.9375-1.3125 7.9375h-.3125c-1.6875-3.6875-4.375-5.5-8.125-5.5-2.9375 0-5.5625.9375-7.9375 2.8125s-4.25 4.5625-5.625 8-2.0625 7.25-2.0625 11.375c0 3.375.75 6 2.25 7.875s3.625 2.8125 6.3125 2.8125c1.8125 0 3.5625-.5 5.25-1.5s3.5-2.75 5.5-5.125h.25l-.625 6.0625zm-7.5-89.875c0-2.3125-.75-4.125-2.25-5.375-1.5-1.3125-3.6875-1.9375-6.6875-1.9375-2.875 0-5.5.9375-7.875 2.8125s-4.3125 4.4375-5.75 7.8125c-1.4375 3.3125-2.1875 6.8125-2.1875 10.4375 0 3.75 1 6.625 3.0625 8.75s4.8125 3.1875 8.375 3.1875c1.6875 0 3.25-.1875 4.625-.5s3-.9375 4.8125-1.8125v-4.25c-1.9375.9375-3.5 1.5625-4.8125 1.9375s-2.5625.5-3.75.5c-2.5 0-4.3125-.6875-5.5-2.125s-1.75-3.375-1.75-5.9375l.125-2.3125h.9375c6 0 10.5625-1 13.8125-3 3.1875-1.9375 4.8125-4.6875 4.8125-8.1875zm-20.4375-64.8125c0-2.3125-.75-4.125-2.25-5.375-1.5-1.3125-3.6875-1.9375-6.6875-1.9375-2.875 0-5.5.9375-7.875 2.75-2.375 1.875-4.3125 4.4375-5.75 7.8125s-2.1875 6.8125-2.1875 10.4375c0 3.75 1 6.625 3.0625 8.75s4.8125 3.1875 8.375 3.1875c1.6875 0 3.25-.1875 4.625-.5s3-.9375 4.8125-1.8125v-4.25c-1.9375.9375-3.5 1.5625-4.8125 1.9375s-2.5625.5-3.75.5c-2.5 0-4.3125-.6875-5.5-2.125s-1.8125-3.375-1.8125-5.9375l.125-2.3125h.9375c6 0 10.5625-1 13.75-3 3.3125-1.875 4.9375-4.625 4.9375-8.125zm-3.5 145.0625c1.375-3.25 2.0625-6.625 2.0625-10.3125 0-3.8125-1.0625-6.8125-3.1875-9s-5-3.25-8.6875-3.25c-2.9375 0-5.5625.875-8 2.5625-2.375 1.75-4.3125 4.1875-5.75 7.4375-1.375 3.25-2.125 6.6875-2.125 10.375 0 3.8125 1.0625 6.75 3.1875 8.9375s5 3.25 8.75 3.25c3 0 5.6875-.875 8.0625-2.625 2.4375-1.6875 4.3125-4.1875 5.6875-7.375zm-15.1875-73.9375c7.125-1.9375 10.6875-6.3125 10.6875-13 0-7.0625-4.3125-10.625-12.9375-10.625h-9.25l-8.9375 42.4375h4.9375l3.75-17.625h7.3125l6.0625 17.625h5.375zm-17.875-46.0625 9.625-45.125h-4.875l-9.625 45.125zm-4.5625 129.625 8.8125-42.375h-7.75l-19.125 34.9375h-.25l-4.3125-34.9375h-7.0625l-8.9375 42.375h4.6875l5.5-26.0625c.3125-1.4375.6875-3.375 1.0625-5.8125.4375-2.4375.6875-4.3125.8125-5.75h.25l4.8125 37.5625h3.8125l20.8125-37.6875h.1875c-.5 1.5-1.4375 5.3125-2.75 11.375-1.3125 6.125-3.1875 14.875-5.625 26.25h5.0625zm-7.5-139.9375c1.3125-3.4375 2-7.1875 2-11.1875 0-3.3125-.75-6-2.3125-7.875-1.5625-1.9375-3.6875-2.875-6.375-2.875-1.875 0-3.6875.5625-5.4375 1.625s-3.5 2.75-5.3125 5.0625h-.25c.9375-3.3125 1.6875-6.25 2.1875-8.6875.5-2.5 1.3125-6.0625 2.3125-10.75h-4.875l-9.5625 45.125h3.625l2-4.9375h.3125c.6875 1.6875 1.75 3.0625 3.1875 4.0625s3.0625 1.5 4.9375 1.5c3 0 5.625-.9375 8-2.875 2.375-2.0625 4.25-4.75 5.5625-8.1875zm-8.5 50.0625c0-2.3125-.75-4.125-2.25-5.375-1.5-1.3125-3.6875-1.9375-6.6875-1.9375-2.875 0-5.5.9375-7.875 2.8125s-4.3125 4.4375-5.75 7.8125c-1.4375 3.3125-2.1875 6.8125-2.1875 10.4375 0 3.75 1 6.625 3.0625 8.75s4.8125 3.1875 8.375 3.1875c1.6875 0 3.25-.1875 4.625-.5s3-.9375 4.8125-1.8125v-4.25c-1.9375.9375-3.5 1.5625-4.8125 1.9375s-2.5625.5-3.75.5c-2.5 0-4.3125-.6875-5.5-2.125s-1.8125-3.375-1.8125-5.9375l.125-2.3125h.9375c6 0 10.5625-1 13.8125-3 3.25-1.9375 4.875-4.6875 4.875-8.1875zm-20.625-80.75c0-1.75-.875-2.625-2.5625-2.625-1 0-1.8125.3125-2.375 1-.625.6875-.9375 1.5625-.9375 2.625 0 .875.25 1.5625.75 2 .5.5 1.125.6875 1.9375.6875s1.5625-.375 2.25-1.125.9375-1.5.9375-2.5625zm-9.125 41 6.8125-31.8125h-4.875l-6.8125 31.8125zm-.625 38.5625 1.5625-4c-3.0625-1.4375-6.25-2.125-9.5625-2.125-3.1875 0-5.75.8125-7.6875 2.4375s-2.9375 3.8125-2.9375 6.4375c0 1.875.5 3.4375 1.5625 4.8125s2.8125 2.75 5.3125 4.125c2.25 1.3125 3.6875 2.375 4.375 3.125s1 1.6875 1 2.8125c0 1.5-.625 2.75-1.875 3.6875s-3.0625 1.4375-5.5 1.4375c-1.375 0-2.8125-.1875-4.375-.6875-1.5625-.4375-3-1.0625-4.375-1.875v4.5625c2.625 1.3125 5.5625 2 8.875 2 3.875 0 6.875-.875 9.0625-2.5625 2.125-1.6875 3.1875-4.0625 3.1875-7.0625 0-1.1875-.1875-2.3125-.6875-3.25-.4375-.9375-1.125-1.875-2-2.6875s-2.375-1.8125-4.4375-3c-2.125-1.1875-3.5625-2.1875-4.25-3-.6875-.75-1.0625-1.6875-1.0625-2.8125 0-1.3125.5-2.4375 1.5625-3.25 1-.875 2.4375-1.25 4.25-1.25 2.3125 0 4.4375.4375 6.375 1.25zm-5.6875-66.6875.75-3.6875h-7.9375l1.625-7.3125h-2.875l-3.625 6.625-5.375 2.25-.4375 2.125h5l-3.6875 17.4375c-.375 1.625-.5 3.0625-.5 4.375 0 2.3125.625 4 1.9375 5.125s3.125 1.75 5.5625 1.75c.5625 0 1.375-.125 2.3125-.3125 1-.1875 1.75-.4375 2.4375-.6875v-3.75c-1.75.5-3.125.75-4.1875.75-1 0-1.8125-.3125-2.375-.875s-.8125-1.4375-.8125-2.5c0-.875.1875-2.125.5-3.8125l3.75-17.5zm-10.5625 157.75 6.75-31.8125h-3.6875l-1.9375 5h-.3125c-.75-1.8125-1.875-3.1875-3.25-4.125s-3-1.4375-4.75-1.4375c-2.875 0-5.5 1-7.9375 2.9375s-4.3125 4.6875-5.6875 8.125-2.0625 7.1875-2.0625 11.1875c0 3.3125.75 5.9375 2.3125 7.875 1.5 1.875 3.625 2.875 6.3125 2.875 3.8125 0 7.5-2.25 10.9375-6.625h.25l-.75 6.0625h3.8125zm-15.375-64.8125 6.75-31.8125h-3.6875l-1.9375 5h-.3125c-.75-1.8125-1.875-3.1875-3.25-4.125s-3-1.4375-4.75-1.4375c-2.875 0-5.5 1-7.9375 2.9375s-4.3125 4.625-5.6875 8.0625-2.0625 7.1875-2.0625 11.1875c0 3.3125.75 5.9375 2.3125 7.875 1.5 1.875 3.625 2.875 6.3125 2.875 3.8125 0 7.5-2.1875 10.9375-6.625h.25l-.75 6.0625zm-3.6875-64.8125 6.75-31.8125h-3.6875l-1.9375 5h-.3125c-.75-1.8125-1.875-3.1875-3.25-4.125s-3-1.4375-4.75-1.4375c-2.875 0-5.5 1-7.9375 2.9375s-4.3125 4.625-5.6875 8.125c-1.375 3.4375-2.0625 7.1875-2.0625 11.1875 0 3.3125.75 5.9375 2.3125 7.875 1.5 1.875 3.625 2.875 6.3125 2.875 3.8125 0 7.5-2.25 10.9375-6.625h.25l-.75 6.0625h3.8125zm-6 102 1.0625-4.3125c-1-.25-2.125-.4375-3.5-.4375-1.1875 0-2.3125.25-3.3125.625-1 .4375-1.9375 1.0625-2.875 1.875s-2.0625 2.125-3.4375 3.9375h-.3125l.625-5.875h-4l-6.8125 31.8125h4.875l3.125-14.5625c.5625-2.5 1.375-4.8125 2.5625-6.875 1.125-2.0625 2.5-3.6875 4.0625-4.8125 1.5625-1.1875 3.1875-1.75 4.9375-1.75.9375 0 2 .125 3 .375zm-21.625-47.5c1.3125-3.4375 2-7.1875 2-11.1875 0-3.3125-.75-6-2.3125-7.875-1.5-1.9375-3.625-2.875-6.375-2.875-1.875 0-3.6875.5625-5.4375 1.625s-3.5 2.75-5.3125 5.0625h-.25c.9375-3.3125 1.6875-6.25 2.1875-8.6875.5-2.5 1.25-6.0625 2.25-10.75h-4.875l-9.5 45h3.625l2-4.9375h.3125c.75 1.6875 1.8125 3.0625 3.1875 4.0625 1.4375 1 3.0625 1.5 4.9375 1.5 3 0 5.625-.9375 8-2.875 2.4375-1.9375 4.25-4.625 5.5625-8.0625zm-3.75-64.75c1.3125-3.4375 2-7.1875 2-11.25 0-3.4375-.75-6.0625-2.3125-7.9375-1.5-1.875-3.625-2.8125-6.25-2.8125-3.75 0-7.3125 2.1875-10.8125 6.625h-.25l.75-6.0625h-4.0625l-9.75 46.0625h4.8125c2.0625-9.8125 3.1875-15.1875 3.3125-16.0625s.25-1.5625.3125-2.0625l.125-1.125h.3125c.75 1.75 1.875 3.125 3.25 4.0625 1.4375.9375 3.0625 1.4375 4.9375 1.4375 3 0 5.625-.9375 8-2.875 2.5-1.9375 4.3125-4.5625 5.625-8zm-1.125 114.8125c0-2.3125-.75-4.125-2.25-5.375-1.5-1.3125-3.6875-1.9375-6.6875-1.9375-2.875 0-5.5.9375-7.875 2.8125s-4.3125 4.4375-5.75 7.8125-2.1875 6.8125-2.1875 10.5c0 3.75 1 6.625 3.0625 8.75s4.8125 3.1875 8.375 3.1875c1.6875 0 3.25-.1875 4.625-.5s3-.9375 4.8125-1.8125v-4.25c-1.9375.9375-3.5 1.5625-4.8125 1.9375s-2.5625.5-3.75.5c-2.5 0-4.3125-.6875-5.5-2.125s-1.75-3.375-1.75-5.9375l.125-2.3125h.9375c6 0 10.5625-1 13.75-3 3.25-2 4.875-4.75 4.875-8.25zm-24.1875-67.875.75-3.6875h-7.9375l1.5625-7.3125h-2.8125l-3.625 6.625-5.375 2.25-.4375 2.125h5l-3.6875 17.5c-.375 1.625-.5 3.0625-.5 4.3125 0 2.3125.625 4 1.9375 5.125s3.125 1.75 5.5625 1.75c.5625 0 1.375-.0625 2.3125-.3125.9375-.1875 1.8125-.4375 2.4375-.6875v-3.75c-1.75.5-3.125.75-4.1875.75-1 0-1.8125-.3125-2.375-.875s-.8125-1.4375-.8125-2.5c0-.875.1875-2.125.5-3.8125l3.75-17.5zm-7.1875 68.3125c0-2.5-.6875-4.4375-2-5.75-1.375-1.3125-3.25-2-5.6875-2-1.9375 0-3.8125.5625-5.6875 1.75s-3.625 2.9375-5.3125 5.375h-.25c-.1875-2.25-.9375-4-2.0625-5.25-1.1875-1.25-2.875-1.875-5.0625-1.875-1.75 0-3.5.5-5.1875 1.5s-3.375 2.6875-5.0625 4.9375h-.25l.625-5.875h-4l-6.8125 31.8125h4.875l2.9375-13.75c.625-3.0625 1.5625-5.625 2.6875-7.8125 1.1875-2.125 2.5-3.8125 4.0625-5 1.5625-1.125 3.125-1.75 4.75-1.75 1.4375 0 2.4375.375 3.0625 1.125s.875 1.8125.875 3.1875c0 .8125-.1875 2.125-.5 3.9375l-4.3125 20.0625h4.875l3.125-14.5c.625-2.8125 1.5-5.25 2.625-7.3125s2.5-3.625 4-4.75c1.5625-1.125 3.0625-1.6875 4.625-1.6875 1.4375 0 2.5.375 3.125 1.0625.6875.75 1 1.6875 1 2.875 0 .8125-.1875 2.1875-.5625 4.25l-4.3125 20.0625h4.9375l4.1875-19.5c.5-2.125.6875-3.8125.6875-5.125zm-.6875-129.625c0-2.5-.6875-4.4375-2-5.75s-3.25-2-5.6875-2c-1.9375 0-3.8125.5625-5.6875 1.75s-3.625 2.9375-5.3125 5.375h-.25c-.1875-2.25-.9375-4-2.0625-5.25-1.1875-1.25-2.875-1.875-5.0625-1.875-1.75 0-3.5.5-5.1875 1.5s-3.375 2.6875-5 4.9375h-.3125l.625-5.875h-4l-6.8125 31.8125h4.875l2.9375-13.75c.625-3.0625 1.5625-5.625 2.6875-7.8125 1.1875-2.125 2.5-3.8125 4.0625-5 1.5625-1.125 3.125-1.75 4.75-1.75 1.4375 0 2.5.375 3.0625 1.125.625.75.875 1.8125.875 3.1875 0 .8125-.1875 2.125-.5 3.9375l-4.3125 20.0625h4.875l3.125-14.5c.625-2.8125 1.5-5.25 2.625-7.3125s2.5-3.625 4-4.75c1.5625-1.125 3.0625-1.6875 4.625-1.6875 1.4375 0 2.5.375 3.125 1.0625.6875.75 1 1.6875 1 2.875 0 .8125-.1875 2.25-.5625 4.25l-4.3125 20.0625h4.9375l4.1875-19.5c.5-2.125.6875-3.8125.6875-5.125zm-26.6875 73.3125 13.1875-15.625h-5.625l-9.5625 11.9375-5.0625-11.9375h-4.9375l6.9375 15.375-13.75 16.375h5.625l10.0625-12.5625 5.5625 12.5625h4.875zm-20-8.9375c0-2.3125-.75-4.125-2.25-5.375-1.5-1.3125-3.6875-1.9375-6.6875-1.9375-2.875 0-5.5.9375-7.875 2.8125s-4.3125 4.4375-5.75 7.8125c-1.4375 3.3125-2.1875 6.8125-2.1875 10.4375 0 3.75 1 6.625 3.0625 8.75s4.8125 3.1875 8.375 3.1875c1.6875 0 3.25-.1875 4.625-.5s3-.9375 4.8125-1.8125v-4.25c-1.9375.9375-3.5 1.5625-4.8125 1.9375s-2.5625.5-3.75.5c-2.5 0-4.3125-.6875-5.5625-2.125-1.1875-1.4375-1.75-3.375-1.75-5.9375l.125-2.3125h.9375c6 0 10.5625-1 13.8125-3 3.3125-1.9375 4.875-4.6875 4.875-8.1875zm-9.6875 89.875 6.75-31.8125h-3.6875l-1.9375 5h-.3125c-.75-1.8125-1.875-3.1875-3.25-4.125s-3-1.4375-4.75-1.4375c-2.875 0-5.5 1-7.9375 2.9375s-4.3125 4.6875-5.6875 8.125-2.0625 7.1875-2.0625 11.1875c0 3.3125.75 5.9375 2.3125 7.875 1.5 1.875 3.625 2.875 6.3125 2.875 3.8125 0 7.5-2.25 10.9375-6.625h.25l-.75 6.0625h3.8125zm2.5-139.25c1.375-3.25 2.0625-6.6875 2.0625-10.3125 0-3.8125-1.0625-6.8125-3.1875-9s-5-3.25-8.6875-3.25c-2.9375 0-5.5625.875-8 2.5625-2.375 1.75-4.3125 4.1875-5.75 7.4375-1.375 3.25-2.125 6.6875-2.125 10.375 0 3.8125 1.0625 6.75 3.1875 8.9375s5 3.25 8.75 3.25c3 0 5.6875-.875 8.0625-2.625 2.4375-1.6875 4.3125-4.1875 5.6875-7.375zm-29.625 74.4375 8.9375-42.4375h-4.75l-5.0625 23.625c-.8125 3.5-1.5 7.4375-2.0625 11.75h-.1875l-13.3125-35.375h-5.25l-8.9375 42.4375h4.6875l5-23.375c.8125-3.8125 1.5625-7.875 2.125-12.125h.1875l13.3125 35.5zm2.375-101.375 2-4.125c-2.9375-1.5625-6.3125-2.3125-10.0625-2.3125-4.375 0-8.25 1.125-11.6875 3.4375s-6.1875 5.625-8.25 9.9375-3.0625 9.0625-3.0625 14.0625 1.3125 8.9375 4 11.8125 6.375 4.3125 11 4.3125c2.125 0 3.9375-.125 5.4375-.4375 1.5-.25 3.0625-.6875 4.75-1.3125v-4.3125c-3.5625 1.125-6.625 1.6875-9.3125 1.6875-3.3125 0-5.9375-1.0625-7.8125-3.25-1.875-2.125-2.8125-5.0625-2.8125-8.6875 0-4.25.75-8.1875 2.3125-11.8125s3.6875-6.375 6.3125-8.25c2.6875-1.875 5.6875-2.8125 9.0625-2.8125 2.75 0 5.4375.6875 8.125 2.0625zm0 129.625 2-4.125c-2.9375-1.5625-6.3125-2.3125-10.0625-2.3125-4.375 0-8.25 1.125-11.6875 3.4375s-6.1875 5.625-8.25 9.9375c-2.0625 4.375-3.0625 9.0625-3.0625 14.0625s1.3125 8.9375 4 11.8125 6.375 4.3125 11 4.3125c2.125 0 3.9375-.125 5.4375-.4375 1.5-.25 3.0625-.6875 4.75-1.3125v-4.25c-3.5625 1.125-6.625 1.625-9.3125 1.625-3.3125 0-5.9375-1.0625-7.8125-3.25-1.875-2.125-2.8125-5.0625-2.8125-8.6875 0-4.25.75-8.1875 2.3125-11.8125s3.6875-6.375 6.3125-8.25c2.6875-1.875 5.6875-2.8125 9.0625-2.8125 2.75.0625 5.4375.6875 8.125 2.0625zm-65.9375-49.625c0-.0625 0-.125 0-.1875s0-.125 0-.1875 0-.0625 0-.125c-.0625-8.5625-.625-20.75-.625-20.875-.5-12.4375-9.9375-21.8125-21.9375-21.8125h-40.875c-3.5 0-7.6875 2.25-9.8125 4.375-1.375 1.375-2.6875 3-3.25 5.1875h-2.75c-.75 0-1.375.625-1.375 1.375 0 1.9375.1875 3.625.5 5.6875.3125 2.1875.6875 4.9375.9375 9.3125h-1.375c-.9375 0-1.6875.75-1.6875 1.6875v3.5h-11c-.75 0-1.375.625-1.375 1.375v20.8125c0 .75.625 1.375 1.375 1.375h11v3.5c0 .9375.75 1.6875 1.6875 1.6875h1.375c-.3125 4.5625-.6875 7.4375-1 9.6875-.25 1.9375-.5 3.5-.5 5.25 0 .75.625 1.375 1.375 1.375h2.75c.5 2.1875 1.875 3.75 3.25 5.125 2.125 2.125 6.3125 4.375 9.8125 4.375h40.875c12 0 21.4375-9.375 21.9375-21.8125 0-.125.5625-11.9375.625-20.5.0625-.0625.0625-.125.0625-.1875zm-115.1875 23.25v-23.5625-23.5625l-35.375 23.5625zm-60 11.375c2.4375-12.5625 3.5625-27.8125 3.5625-34.6875 0-3.875-.5-11.3125-1.375-19.375-.9375-8.0625-2.25-16.8125-4-23.3125-3.125-11.6875-15.4375-16.9375-25.625-16.9375h-151.75c-8.5625 0-15.1875 1.5-21.625 9-6 7-7.5625 20.1875-8.5 31.9375-.625 7.4375-.625 11.375-.625 17.375v4.875c0 5.0625-.0625 9.9375.5625 17.3125.6875 8.3125 2.125 20.1875 7.25 27.5625 7.25 10.5 18.8125 10.625 22.875 10.625h.125 151.6875c11.75.0625 23.1875-2.9375 27.4375-24.375z" fill="#000"/><path d="m890.375 171.5-1.5625 4-1.625-.75c-1.9375-.8125-4.0625-1.25-6.375-1.25-1.8125 0-3.1875.4375-4.25 1.25s-1.5625 1.9375-1.5625 3.25c0 1.0625.375 2 1.0625 2.8125.6875.75 2.125 1.75 4.25 3 2.0625 1.1875 3.5625 2.1875 4.4375 3s1.5625 1.75 2 2.6875.6875 2 .6875 3.25c0 3-1.0625 5.375-3.1875 7.0625s-5.125 2.5625-9.0625 2.5625c-3.25 0-6.1875-.6875-8.875-2v-4.5625c1.375.8125 2.8125 1.4375 4.375 1.875s3 .6875 4.375.6875c2.4375 0 4.25-.5 5.5-1.4375s1.875-2.1875 1.875-3.6875c0-1.125-.3125-2-1-2.8125-.6875-.75-2.125-1.75-4.375-3.125-2.5-1.4375-4.3125-2.8125-5.3125-4.125-1.0625-1.375-1.5625-2.9375-1.5625-4.8125 0-2.6875 1-4.8125 2.9375-6.4375s4.5-2.4375 7.6875-2.4375c3.3125-.1875 6.5.5625 9.5625 2z" fill="#fff"/><path d="m872.5 41.875c1.375 1.375 2.0625 3.375 2.0625 5.9375 0 1.1875-.25 2.8125-.6875 4.8125-.75 3.75-2.125 10.25-4.1875 19.5h-4.875l4.3125-20.0625c.375-1.8125.5-3.125.5-3.9375 0-2.875-1.4375-4.3125-4.25-4.3125-1.75 0-3.375.5625-5 1.6875s-3.0625 2.8125-4.3125 5-2.1875 4.8125-2.8125 7.875l-2.9375 13.75h-4.875l9.5625-45.125h4.875c-.375 1.5625-.6875 3.125-1 4.625s-.625 3-1 4.5625c-.3125 1.5-.6875 3.125-1.125 4.8125-.375 1.6875-.875 3.5-1.375 5.5h.3125c1.8125-2.375 3.625-4.0625 5.375-5.125 1.75-1 3.625-1.5625 5.5625-1.5625 2.5625-.0625 4.5.625 5.875 2.0625z" fill="#fff"/><path d="m861.375 171.25c1.5 1.3125 2.25 3.0625 2.25 5.375 0 3.5-1.625 6.1875-4.8125 8.1875s-7.8125 3-13.8125 3h-.9375l-.125 2.3125c0 2.5625.625 4.5 1.8125 5.9375s3 2.125 5.5 2.125c1.25 0 2.5-.1875 3.75-.5 1.3125-.375 2.875-1 4.8125-1.9375v4.25c-1.8125.875-3.4375 1.4375-4.8125 1.8125-1.375.3125-2.9375.5-4.625.5-3.5625 0-6.375-1.0625-8.375-3.1875s-3.0625-5-3.0625-8.75c0-3.625.75-7.125 2.1875-10.5 1.4375-3.3125 3.375-5.9375 5.75-7.8125s5-2.8125 7.875-2.8125c2.875.0625 5.125.75 6.625 2zm-6.125 10.8125c2.375-1.125 3.5-2.8125 3.5-5 0-1-.375-1.875-1.0625-2.5625s-1.8125-1-3.3125-1c-2 0-3.875.875-5.625 2.75-1.75 1.8125-3.125 4.3125-4 7.5625h.375c4.375-.0625 7.8125-.625 10.125-1.75z" fill="#fff"/><path d="m858.8125 177.0625c0 2.1875-1.1875 3.875-3.5 5-2.375 1.125-5.75 1.75-10.125 1.75h-.375c.9375-3.25 2.25-5.75 4-7.5625s3.625-2.75 5.625-2.75c1.5 0 2.625.3125 3.3125 1s1.0625 1.5 1.0625 2.5625z" fill="#000"/><path d="m844.75 40.3125-.75 3.6875h-7.9375l-3.75 17.5c-.375 1.6875-.5 3-.5 3.8125 0 1.0625.25 1.9375.8125 2.5s1.375.875 2.375.875c1.0625 0 2.4375-.25 4.1875-.75v3.75c-.625.25-1.4375.5-2.4375.6875-.9375.1875-1.75.3125-2.3125.3125-2.4375 0-4.25-.5625-5.5625-1.75-1.3125-1.125-1.9375-2.875-1.9375-5.125 0-1.25.1875-2.75.5-4.375l3.6875-17.4375h-5l.4375-2.125 5.375-2.25 3.625-6.625h2.875l-1.625 7.3125z" fill="#fff"/><path d="m836.6875 156.5625-9.625 45.125h-4.875l9.625-45.125z" fill="#fff"/><path d="m831.1875 104.9375-1.0625 4.3125c-1-.25-2.0625-.375-3.0625-.375-1.75 0-3.4375.5625-4.9375 1.75-1.5625 1.1875-2.875 2.75-4.0625 4.8125-1.125 2.0625-2 4.3125-2.5625 6.875l-3.125 14.5625h-4.875l6.8125-31.8125h4l-.625 5.875h.3125c1.375-1.8125 2.5625-3.125 3.4375-3.9375.9375-.8125 1.875-1.4375 2.875-1.875s2.125-.6875 3.3125-.6875c1.375.0625 2.5625.1875 3.5625.5z" fill="#fff"/><path d="m820.5625 28.5c1.6875 0 2.5625.875 2.5625 2.625 0 1.0625-.3125 1.9375-1 2.6875-.625.75-1.375 1.125-2.25 1.125-.75 0-1.4375-.25-1.9375-.6875-.5-.5-.75-1.125-.75-2 0-1.0625.3125-2 .9375-2.625.6875-.8125 1.4375-1.125 2.4375-1.125z" fill="#fff"/><path d="m820.75 40.3125-6.8125 31.75h-4.875l6.8125-31.75z" fill="#fff"/><path d="m818.1875 169.9375-6.6875 31.8125h-4.0625l.625-5.875h-.3125c-1.875 2.4375-3.6875 4.0625-5.4375 5.0625-1.75.9375-3.5 1.4375-5.3125 1.4375-2.5 0-4.4375-.6875-5.8125-2-1.4375-1.375-2.125-3.25-2.125-5.75 0-1.1875.1875-2.875.625-5l4.25-19.625h4.9375l-4.375 20.125c-.375 1.75-.5 3.0625-.5 4.0625 0 2.75 1.4375 4.125 4.25 4.125 1.6875 0 3.375-.5625 5-1.75s3.125-2.8125 4.375-5 2.1875-4.75 2.875-7.8125l2.875-13.75h4.8125z" fill="#fff"/><path d="m809 40.3125-14.6875 31.8125h-5.9375l-.9375-17.4375c-.0625-1.8125-.125-3.5-.125-5v-4.5625h-.25l-1.4375 3.4375-2.4375 5.5-8.4375 18.0625h-5.875l-1.25-31.8125h4.75l.5 17.25v2.5625c0 2.8125-.0625 5.4375-.25 7.8125h.1875c.875-2.375 2.25-5.5 3.9375-9.3125l8.5625-18.25h5.25l1.0625 17.25c.125 3.25.1875 5.75.1875 7.5625v1.5625l-.0625 1.1875h.1875c.5625-1.6875 1.375-3.75 2.4375-6.3125s4.1875-9.625 9.375-21.25h5.25z" fill="#fff"/><path d="m804 105.125-6.75 31.8125h-3.875l.75-6.0625h-.25c-3.4375 4.4375-7.125 6.625-10.9375 6.625-2.6875 0-4.8125-.9375-6.3125-2.875s-2.3125-4.5625-2.3125-7.875c0-4 .6875-7.75 2.0625-11.1875s3.25-6.125 5.6875-8.0625 5.0625-2.9375 7.9375-2.9375c1.75 0 3.375.5 4.75 1.4375s2.5 2.3125 3.25 4.125h.3125l1.9375-5zm-7.5625 10c0-2-.5625-3.5625-1.625-4.75s-2.5-1.75-4.25-1.75c-2 0-3.875.8125-5.625 2.5s-3.0625 3.9375-4.0625 6.75c-1 2.875-1.5 5.875-1.5 9 0 2.1875.4375 3.875 1.375 4.9375.875 1.125 2.1875 1.625 3.8125 1.625 1.875 0 3.75-.875 5.5625-2.6875 1.875-1.8125 3.375-4.125 4.5-7 1.1875-2.875 1.8125-5.75 1.8125-8.625z" fill="#fff"/><path d="m794.8125 110.375c1.0625 1.1875 1.625 2.75 1.625 4.75 0 2.875-.5625 5.75-1.75 8.625-1.125 2.875-2.6875 5.1875-4.5 7-1.875 1.8125-3.6875 2.6875-5.5625 2.6875-1.625 0-2.9375-.5625-3.8125-1.625-.9375-1.0625-1.375-2.75-1.375-4.9375 0-3.125.5-6.125 1.5-9s2.375-5.0625 4.0625-6.75c1.75-1.6875 3.625-2.5 5.625-2.5 1.6875 0 3.0625.5625 4.1875 1.75z" fill="#000"/><path d="m786.375 156.5625-9.5625 45.125h-4.0625l.625-6.0625h-.25c-1.9375 2.4375-3.8125 4.125-5.5 5.125s-3.4375 1.5-5.25 1.5c-2.6875 0-4.8125-.9375-6.3125-2.8125s-2.25-4.5625-2.25-7.875c0-4.125.6875-7.9375 2.0625-11.375s3.25-6.125 5.625-8 5-2.8125 7.9375-2.8125c3.75 0 6.4375 1.875 8.125 5.5h.3125c.3125-3 .75-5.625 1.3125-7.9375l2.25-10.375zm-12.125 32.0625c1.125-2.8125 1.6875-5.6875 1.6875-8.625 0-2.125-.5-3.75-1.5625-4.875s-2.5625-1.6875-4.5625-1.6875c-1.9375 0-3.75.8125-5.4375 2.375s-3 3.8125-4.0625 6.75c-1 2.875-1.5 5.9375-1.5 9.125 0 4.375 1.75 6.5625 5.1875 6.5625 1.8125 0 3.6875-.9375 5.625-2.6875 1.9375-1.8125 3.5-4.125 4.625-6.9375z" fill="#fff"/><path d="m775.9375 180c0 2.9375-.5625 5.8125-1.6875 8.625s-2.6875 5.125-4.625 6.9375-3.8125 2.6875-5.625 2.6875c-3.4375 0-5.1875-2.1875-5.1875-6.5625 0-3.1875.5-6.25 1.5-9.125s2.375-5.125 4.0625-6.75 3.5-2.375 5.4375-2.375c2 0 3.5.5625 4.5625 1.6875s1.5625 2.75 1.5625 4.875z" fill="#000"/><path d="m767.0625 106.4375c1.5 1.3125 2.25 3.0625 2.25 5.375 0 3.5-1.625 6.1875-4.8125 8.1875s-7.8125 3-13.8125 3h-.9375l-.125 2.3125c0 2.5625.5625 4.5 1.75 5.9375s3 2.125 5.5 2.125c1.25 0 2.5-.1875 3.75-.5 1.3125-.375 2.875-1 4.8125-1.9375v4.25c-1.8125.875-3.4375 1.4375-4.8125 1.8125-1.375.3125-2.9375.5-4.625.5-3.5625 0-6.375-1.0625-8.375-3.1875s-3.0625-5-3.0625-8.75c0-3.625.75-7.125 2.1875-10.4375s3.375-5.9375 5.75-7.8125 5-2.8125 7.875-2.8125c3 0 5.1875.6875 6.6875 1.9375zm-6.125 10.8125c2.375-1.125 3.5-2.8125 3.5-5 0-1-.375-1.875-1.0625-2.5625s-1.8125-1-3.3125-1c-2 0-3.875.9375-5.625 2.75s-3.125 4.3125-4 7.5625h.375c4.4375-.0625 7.8125-.625 10.125-1.75z" fill="#fff"/><path d="m764.5 112.25c0 2.1875-1.1875 3.875-3.5 5-2.375 1.125-5.75 1.75-10.125 1.75h-.375c.9375-3.25 2.25-5.75 4-7.5625s3.625-2.75 5.625-2.75c1.5 0 2.625.3125 3.3125 1s1.0625 1.5 1.0625 2.5625z" fill="#000"/><path d="m746.625 41.625c1.5 1.3125 2.25 3.0625 2.25 5.375 0 3.5-1.625 6.1875-4.8125 8.1875s-7.8125 3-13.75 3h-.9375l-.125 2.3125c0 2.5.625 4.5 1.8125 5.9375s3 2.125 5.5 2.125c1.1875 0 2.4375-.1875 3.75-.5 1.3125-.375 2.875-1 4.8125-1.9375v4.25c-1.8125.8125-3.4375 1.4375-4.8125 1.8125-1.375.3125-2.9375.5-4.625.5-3.5625 0-6.375-1.0625-8.375-3.1875s-3.0625-5-3.0625-8.75c0-3.625.75-7.125 2.1875-10.4375s3.375-5.9375 5.75-7.8125 5-2.75 7.875-2.75c2.8125-.0625 5.0625.625 6.5625 1.875zm-6.125 10.8125c2.375-1.125 3.5-2.8125 3.5-5 0-1-.375-1.875-1.0625-2.5625s-1.8125-1-3.3125-1c-2 0-3.875.875-5.625 2.75-1.75 1.8125-3.0625 4.3125-4 7.5625h.375c4.375-.0625 7.8125-.625 10.125-1.75z" fill="#fff"/><path d="m747.5 181.75c0 3.625-.6875 7.0625-2.0625 10.3125s-3.25 5.75-5.625 7.5-5.0625 2.625-8.0625 2.625c-3.6875 0-6.625-1.125-8.75-3.25-2.125-2.1875-3.1875-5.1875-3.1875-8.9375 0-3.6875.6875-7.125 2.125-10.375s3.3125-5.6875 5.75-7.4375c2.375-1.75 5.0625-2.5625 8-2.5625 3.6875 0 6.5625 1.0625 8.6875 3.25 2 2.0625 3.125 5.0625 3.125 8.875zm-5.0625-.6875c0-2.25-.625-4-1.8125-5.4375-1.1875-1.375-2.875-2.0625-4.9375-2.0625-2.125 0-4 .6875-5.6875 2.125s-3 3.4375-3.875 5.9375c-.9375 2.5625-1.375 5.375-1.375 8.5 0 2.5625.625 4.5 1.8125 5.875 1.25 1.375 3 2.0625 5.3125 2.0625 2 0 3.8125-.6875 5.4375-2.125s2.875-3.4375 3.75-6c.9375-2.5625 1.375-5.5 1.375-8.875z" fill="#fff"/><path d="m744 47.4375c0 2.1875-1.1875 3.875-3.5 5-2.375 1.125-5.75 1.75-10.125 1.75h-.375c.9375-3.25 2.25-5.75 4-7.5625s3.625-2.75 5.625-2.75c1.5 0 2.625.3125 3.3125 1 .75.6875 1.0625 1.5 1.0625 2.5625z" fill="#000"/><path d="m740.625 175.6875c1.1875 1.375 1.8125 3.1875 1.8125 5.4375 0 3.375-.4375 6.3125-1.375 8.9375-.875 2.625-2.125 4.625-3.75 6-1.625 1.4375-3.4375 2.125-5.4375 2.125-2.3125 0-4.0625-.6875-5.3125-2.0625s-1.8125-3.3125-1.8125-5.875c0-3.125.4375-5.9375 1.375-8.5s2.1875-4.5625 3.875-5.9375c1.6875-1.4375 3.5625-2.125 5.6875-2.125 2.0625-.125 3.6875.625 4.9375 2z" fill="#000"/><path d="m740.875 105.125c0 6.75-3.5625 11.0625-10.6875 13l6.9375 18.75h-5.375l-6.0625-17.625h-7.3125l-3.75 17.625h-4.9375l8.9375-42.4375h9.25c8.6875.0625 13 3.5625 13 10.6875zm-5.125.375c0-2.375-.625-4.0625-1.9375-5.125s-3.4375-1.5625-6.375-1.5625h-4.8125c-2 9.5625-3.125 14.9375-3.375 16.1875h4.875c3.75 0 6.625-.8125 8.625-2.4375s3-4 3-7.0625z" fill="#fff"/><path d="m733.8125 100.375c1.3125 1.0625 1.9375 2.75 1.9375 5.125 0 3.0625-1 5.4375-3 7.0625s-4.875 2.4375-8.625 2.4375h-4.875c.25-1.25 1.375-6.625 3.375-16.1875h4.8125c2.9375 0 5.0625.5 6.375 1.5625z" fill="#000"/><path d="m721.9375 26.9375-9.625 45.125h-4.875l9.625-45.125z" fill="#fff"/><path d="m716.5 159.3125-8.8125 42.375h-5.0625c2.4375-11.4375 4.3125-20.1875 5.625-26.25 1.3125-6.125 2.1875-9.875 2.75-11.375h-.1875l-20.8125 37.6875h-3.8125l-4.8125-37.5625h-.25c-.125 1.375-.4375 3.3125-.8125 5.75-.4375 2.4375-.75 4.375-1.0625 5.8125l-5.5 26.0625h-4.6875l8.9375-42.375h7.0625l4.3125 34.9375h.25l19.125-34.9375h7.75z" fill="#fff"/><path d="m702.25 50.5c0 4.0625-.6875 7.75-2 11.1875s-3.1875 6.125-5.5625 8c-2.375 1.9375-5.0625 2.875-8 2.875-1.875 0-3.5625-.5-4.9375-1.5-1.4375-1-2.5-2.3125-3.1875-4.0625h-.3125l-2 4.9375h-3.625l9.5625-45.125h4.875c-1 4.6875-1.75 8.25-2.3125 10.75-.5 2.5-1.25 5.375-2.1875 8.6875h.25c1.8125-2.3125 3.5625-3.9375 5.3125-5.0625 1.75-1.0625 3.5625-1.625 5.4375-1.625 2.75 0 4.875.9375 6.375 2.875 1.5625 2.125 2.3125 4.75 2.3125 8.0625zm-5-.125c0-4.375-1.75-6.5625-5.1875-6.5625-1.875 0-3.75.9375-5.6875 2.75s-3.4375 4.125-4.5625 6.9375-1.6875 5.625-1.6875 8.5625c0 2.125.5625 3.75 1.625 4.875s2.625 1.6875 4.625 1.6875c1.9375 0 3.6875-.8125 5.375-2.375 1.625-1.5625 3-3.8125 4-6.6875s1.5-5.9375 1.5-9.1875z" fill="#fff"/><path d="m692.0625 43.8125c3.4375 0 5.1875 2.1875 5.1875 6.5625 0 3.25-.5 6.3125-1.5 9.1875s-2.3125 5.125-4 6.6875c-1.625 1.5625-3.4375 2.375-5.375 2.375-2 0-3.5625-.5625-4.625-1.6875s-1.625-2.75-1.625-4.875c0-2.9375.5625-5.75 1.6875-8.5625 1.125-2.75 2.625-5.0625 4.5625-6.9375s3.875-2.75 5.6875-2.75z" fill="#000"/><path d="m689.5 106.4375c1.5 1.3125 2.25 3.0625 2.25 5.375 0 3.5-1.625 6.1875-4.8125 8.1875s-7.8125 3-13.8125 3h-.9375l-.125 2.3125c0 2.5625.625 4.5 1.8125 5.9375s3 2.125 5.5 2.125c1.25 0 2.5-.1875 3.75-.5 1.3125-.375 2.875-1 4.8125-1.9375v4.25c-1.8125.875-3.4375 1.4375-4.8125 1.8125-1.375.3125-2.9375.5-4.625.5-3.5625 0-6.375-1.0625-8.375-3.1875s-3.0625-5-3.0625-8.75c0-3.625.75-7.125 2.1875-10.4375s3.375-5.9375 5.75-7.8125 5-2.8125 7.875-2.8125 5.125.6875 6.625 1.9375zm-6.125 10.8125c2.375-1.125 3.5-2.8125 3.5-5 0-1-.375-1.875-1.0625-2.5625s-1.8125-1-3.3125-1c-2 0-3.875.9375-5.625 2.75s-3.125 4.3125-4 7.5625h.375c4.375-.0625 7.8125-.625 10.125-1.75z" fill="#fff"/><path d="m686.9375 112.25c0 2.1875-1.1875 3.875-3.5 5-2.375 1.125-5.75 1.75-10.125 1.75h-.375c.9375-3.25 2.25-5.75 4-7.5625s3.625-2.75 5.625-2.75c1.5 0 2.625.3125 3.3125 1s1.0625 1.5 1.0625 2.5625z" fill="#000"/><path d="m668.5625 28.5c1.6875 0 2.5625.875 2.5625 2.625 0 1.0625-.3125 1.9375-.9375 2.6875s-1.375 1.125-2.25 1.125c-.75 0-1.4375-.25-1.9375-.6875-.5-.5-.75-1.125-.75-2 0-1.0625.3125-2 .9375-2.625.625-.8125 1.4375-1.125 2.375-1.125z" fill="#fff"/><path d="m668.75 40.3125-6.75 31.75h-4.875l6.75-31.75z" fill="#fff"/><path d="m662.9375 106.6875-1.5625 4-1.625-.75c-1.9375-.8125-4.0625-1.25-6.375-1.25-1.8125 0-3.1875.4375-4.25 1.25-1 .8125-1.5625 1.9375-1.5625 3.25 0 1.0625.375 2 1.0625 2.8125.6875.75 2.125 1.75 4.25 3 2.0625 1.1875 3.5625 2.1875 4.4375 3s1.5625 1.75 2 2.6875.6875 2 .6875 3.25c0 3-1.0625 5.375-3.1875 7.0625s-5.125 2.5625-9.0625 2.5625c-3.25 0-6.25-.6875-8.875-2v-4.5625c1.375.8125 2.8125 1.4375 4.375 1.875s3 .6875 4.375.6875c2.4375 0 4.25-.5 5.5-1.4375s1.875-2.1875 1.875-3.6875c0-1.125-.3125-2-1-2.8125-.6875-.75-2.125-1.8125-4.375-3.125-2.5-1.4375-4.3125-2.8125-5.3125-4.125-1.0625-1.375-1.5625-2.9375-1.5625-4.8125 0-2.6875 1-4.8125 2.9375-6.4375s4.5-2.4375 7.6875-2.4375c3.3125-.1875 6.5.5625 9.5625 2z" fill="#fff"/><path d="m656.4375 40.3125-.75 3.6875h-7.9375l-3.75 17.5c-.3125 1.6875-.5 3-.5 3.8125 0 1.0625.25 1.9375.8125 2.5s1.375.875 2.375.875c1.0625 0 2.4375-.25 4.1875-.75v3.75c-.6875.25-1.4375.5-2.4375.6875-.9375.1875-1.75.3125-2.3125.3125-2.4375 0-4.25-.5625-5.5625-1.75-1.3125-1.125-1.9375-2.875-1.9375-5.125 0-1.25.1875-2.75.5-4.375l3.6875-17.4375h-5l.4375-2.125 5.375-2.25 3.625-6.625h2.875l-1.625 7.3125z" fill="#fff"/><path d="m651.875 169.9375-6.75 31.8125h-3.875l.75-6.0625h-.25c-3.4375 4.4375-7.125 6.625-10.9375 6.625-2.6875 0-4.8125-.9375-6.3125-2.875s-2.3125-4.5625-2.3125-7.875c0-4 .6875-7.75 2.0625-11.1875s3.25-6.125 5.6875-8.125 5.0625-2.9375 7.9375-2.9375c1.8125 0 3.375.5 4.75 1.4375s2.5 2.3125 3.25 4.125h.3125l1.9375-5h3.75zm-7.5625 10c0-2-.5625-3.5625-1.625-4.75s-2.5-1.75-4.25-1.75c-2 0-3.875.8125-5.625 2.5s-3.0625 3.9375-4.0625 6.75c-1 2.875-1.5 5.875-1.5 9 0 2.1875.4375 3.875 1.375 4.9375.875 1.125 2.1875 1.625 3.8125 1.625 1.875 0 3.75-.875 5.5625-2.6875 1.875-1.8125 3.375-4.125 4.5-7 1.1875-2.875 1.8125-5.75 1.8125-8.625z" fill="#fff"/><path d="m642.6875 175.1875c1.0625 1.1875 1.625 2.75 1.625 4.75 0 2.875-.5625 5.75-1.75 8.625-1.125 2.875-2.6875 5.1875-4.5 7-1.875 1.8125-3.6875 2.6875-5.5625 2.6875-1.625 0-2.9375-.5625-3.8125-1.625-.9375-1.0625-1.375-2.75-1.375-4.9375 0-3.125.5-6.125 1.5-9s2.375-5.0625 4.0625-6.75c1.75-1.625 3.625-2.5 5.625-2.5 1.625 0 3.0625.5625 4.1875 1.75z" fill="#000"/><path d="m636.5 105.125-6.75 31.8125h-3.875l.75-6.0625h-.25c-3.4375 4.4375-7.125 6.625-10.9375 6.625-2.6875 0-4.8125-.9375-6.3125-2.875-1.5625-1.9375-2.3125-4.5625-2.3125-7.875 0-4 .6875-7.75 2.0625-11.1875s3.25-6.125 5.6875-8.0625 5.0625-2.9375 7.9375-2.9375c1.75 0 3.375.5 4.75 1.4375s2.5 2.3125 3.25 4.125h.3125l1.9375-5zm-7.5625 10c0-2-.5625-3.5625-1.625-4.75s-2.5-1.75-4.25-1.75c-2 0-3.875.8125-5.625 2.5s-3.0625 3.9375-4.0625 6.75c-1 2.875-1.5 5.875-1.5 9 0 2.1875.4375 3.875 1.375 4.9375.875 1.125 2.1875 1.625 3.8125 1.625 1.875 0 3.75-.875 5.625-2.6875s3.375-4.125 4.5-7c1.1875-2.875 1.75-5.75 1.75-8.625z" fill="#fff"/><path d="m632.8125 40.3125-6.75 31.8125h-3.875l.75-6.0625h-.25c-3.4375 4.4375-7.125 6.625-10.9375 6.625-2.6875 0-4.8125-.9375-6.3125-2.875s-2.3125-4.5625-2.3125-7.875c0-4 .6875-7.75 2.0625-11.1875s3.25-6.125 5.6875-8.125c2.4375-1.9375 5.0625-2.9375 7.9375-2.9375 1.75 0 3.375.5 4.75 1.4375s2.5 2.3125 3.25 4.125h.3125l1.9375-5h3.75zm-7.625 10c0-2-.5625-3.5625-1.625-4.75s-2.5-1.75-4.25-1.75c-2 0-3.875.8125-5.625 2.5s-3.0625 3.9375-4.0625 6.75c-1 2.875-1.5 5.875-1.5 9 0 2.1875.4375 3.875 1.375 4.9375.9375 1.125 2.1875 1.625 3.8125 1.625 1.875 0 3.75-.875 5.625-2.6875s3.375-4.125 4.5-7c1.1875-2.875 1.75-5.75 1.75-8.625z" fill="#fff"/><path d="m627.3125 110.375c1.0625 1.1875 1.625 2.75 1.625 4.75 0 2.875-.5625 5.75-1.75 8.625s-2.6875 5.1875-4.5 7c-1.875 1.8125-3.75 2.6875-5.625 2.6875-1.625 0-2.9375-.5625-3.8125-1.625-.9375-1.0625-1.375-2.75-1.375-4.9375 0-3.125.5-6.125 1.5-9s2.375-5.0625 4.0625-6.75c1.75-1.6875 3.625-2.5 5.625-2.5 1.75 0 3.1875.5625 4.25 1.75z" fill="#000"/><path d="m623.5625 45.5625c1.0625 1.1875 1.625 2.75 1.625 4.75 0 2.875-.5625 5.75-1.75 8.625s-2.6875 5.1875-4.5 7c-1.875 1.8125-3.75 2.6875-5.625 2.6875-1.625 0-2.9375-.5625-3.8125-1.625-.9375-1.0625-1.375-2.75-1.375-4.9375 0-3.125.5-6.125 1.5-9s2.3125-5.0625 4.0625-6.75 3.625-2.5 5.625-2.5c1.75 0 3.1875.5625 4.25 1.75z" fill="#000"/><path d="m621.125 169.75-1.0625 4.3125c-1-.25-2.0625-.375-3.0625-.375-1.75 0-3.375.5625-4.9375 1.75s-2.875 2.75-4.0625 4.8125c-1.125 2.0625-2 4.375-2.5625 6.875l-3.125 14.5625h-4.875l6.8125-31.8125h4l-.625 5.875h.3125c1.375-1.8125 2.5625-3.1875 3.4375-3.9375.9375-.8125 1.875-1.4375 2.875-1.875s2.125-.625 3.3125-.625c1.375 0 2.5625.125 3.5625.4375z" fill="#fff"/><path d="m600.4375 115.3125c0 4.0625-.6875 7.75-2 11.1875s-3.1875 6.125-5.5625 8c-2.375 1.9375-5.0625 2.875-8 2.875-1.875 0-3.5-.5-4.9375-1.5s-2.5-2.3125-3.1875-4.0625h-.3125l-2 4.9375h-3.625l9.5625-45.125h4.875c-1 4.6875-1.75 8.25-2.25 10.75-.5625 2.5-1.25 5.375-2.1875 8.6875h.25c1.8125-2.3125 3.5625-3.9375 5.3125-5.0625 1.75-1.0625 3.5625-1.625 5.4375-1.625 2.75 0 4.875.9375 6.375 2.875 1.5 2.125 2.25 4.75 2.25 8.0625zm-5-.125c0-4.375-1.75-6.5625-5.1875-6.5625-1.875 0-3.75.9375-5.6875 2.75s-3.4375 4.125-4.5625 6.9375-1.6875 5.625-1.6875 8.5625c0 2.125.5625 3.75 1.625 4.875s2.625 1.6875 4.625 1.6875c1.9375 0 3.6875-.8125 5.375-2.375s3-3.8125 4-6.6875 1.5-5.9375 1.5-9.1875z" fill="#fff"/><path d="m596.75 50.5c0 4.0625-.6875 7.875-2 11.25-1.3125 3.4375-3.1875 6.125-5.5625 8-2.375 1.9375-5 2.875-8 2.875-1.875 0-3.5-.5-4.9375-1.4375s-2.5-2.3125-3.25-4.0625h-.3125l-.125 1.125c-.0625.5-.1875 1.1875-.3125 2.0625s-1.25 6.25-3.3125 16.0625h-4.8125l9.75-46.0625h4.0625l-.75 6.0625h.25c3.4375-4.375 7.0625-6.625 10.8125-6.625 2.625 0 4.75.9375 6.25 2.8125 1.4375 1.9375 2.25 4.5625 2.25 7.9375zm-5-.125c0-4.375-1.75-6.5625-5.1875-6.5625-1.875 0-3.75.9375-5.6875 2.75s-3.4375 4.125-4.5625 6.9375-1.6875 5.625-1.6875 8.5625c0 2.125.5625 3.75 1.625 4.875s2.625 1.6875 4.625 1.6875c1.9375 0 3.6875-.8125 5.375-2.375s3-3.8125 4-6.6875 1.5-5.9375 1.5-9.1875z" fill="#fff"/><path d="m590.3125 108.625c3.4375 0 5.1875 2.1875 5.1875 6.5625 0 3.25-.5 6.3125-1.5 9.1875s-2.3125 5.125-4 6.6875c-1.625 1.5625-3.4375 2.375-5.375 2.375-2 0-3.5625-.5625-4.625-1.6875s-1.625-2.75-1.625-4.875c0-2.9375.5625-5.75 1.6875-8.5625 1.125-2.75 2.6875-5.0625 4.5625-6.9375 1.9375-1.875 3.8125-2.75 5.6875-2.75z" fill="#000"/><path d="m591.3125 171.25c1.5 1.3125 2.25 3.0625 2.25 5.375 0 3.5-1.625 6.1875-4.8125 8.1875s-7.8125 3-13.75 3h-.9375l-.125 2.3125c0 2.5625.625 4.5 1.75 5.9375 1.1875 1.4375 3.0625 2.125 5.5 2.125 1.25 0 2.5-.1875 3.75-.5 1.3125-.375 2.875-1 4.8125-1.9375v4.25c-1.8125.875-3.4375 1.4375-4.8125 1.8125-1.375.3125-2.9375.5-4.625.5-3.5625 0-6.375-1.0625-8.375-3.1875s-3.0625-5-3.0625-8.75c0-3.625.75-7.125 2.1875-10.5 1.4375-3.3125 3.375-5.9375 5.75-7.8125s5-2.8125 7.875-2.8125c2.875.0625 5.125.75 6.625 2zm-6.125 10.8125c2.375-1.125 3.5-2.8125 3.5-5 0-1-.375-1.875-1.0625-2.5625s-1.8125-1-3.3125-1c-2 0-3.875.875-5.625 2.75-1.75 1.8125-3.0625 4.3125-4 7.5625h.375c4.375-.0625 7.75-.625 10.125-1.75z" fill="#fff"/><path d="m586.5625 43.8125c3.4375 0 5.1875 2.1875 5.1875 6.5625 0 3.25-.5 6.3125-1.5 9.1875s-2.3125 5.125-4 6.6875c-1.625 1.5625-3.4375 2.375-5.375 2.375-2 0-3.5625-.5625-4.625-1.6875s-1.625-2.75-1.625-4.875c0-2.9375.5625-5.75 1.6875-8.5625 1.125-2.75 2.625-5.0625 4.5625-6.9375s3.8125-2.75 5.6875-2.75z" fill="#000"/><path d="m588.75 177.0625c0 2.1875-1.1875 3.875-3.5 5-2.375 1.125-5.75 1.75-10.125 1.75h-.375c.9375-3.25 2.25-5.75 4-7.5625s3.625-2.75 5.625-2.75c1.5 0 2.625.3125 3.3125 1s1.0625 1.5 1.0625 2.5625z" fill="#000"/><path d="m570.125 105.125-.75 3.625h-7.9375l-3.75 17.5c-.3125 1.6875-.5 3-.5 3.8125 0 1.0625.25 1.9375.8125 2.5s1.375.875 2.375.875c1.0625 0 2.4375-.25 4.1875-.75v3.75c-.625.25-1.5.5-2.4375.6875s-1.75.3125-2.3125.3125c-2.4375 0-4.25-.5625-5.5625-1.75s-1.9375-2.875-1.9375-5.125c0-1.25.1875-2.6875.5-4.3125l3.6875-17.5h-5l.4375-2.125 5.375-2.25 3.625-6.625h2.8125l-1.5625 7.3125h7.9375z" fill="#fff"/><path d="m560.1875 171.3125c1.3125 1.3125 2 3.25 2 5.75 0 1.3125-.1875 3.0625-.625 5.1875l-4.1875 19.5h-4.875l4.3125-20.0625c.375-2 .5625-3.4375.5625-4.25 0-1.1875-.3125-2.1875-1-2.875-.6875-.75-1.75-1.0625-3.125-1.0625-1.5625 0-3.125.5625-4.625 1.6875-1.5625 1.125-2.875 2.6875-4 4.75s-2 4.5-2.625 7.3125l-3.125 14.5h-4.875l4.3125-20.0625c.375-1.8125.5-3.125.5-3.9375 0-1.375-.3125-2.4375-.875-3.1875-.625-.75-1.625-1.125-3.0625-1.125-1.625 0-3.1875.5625-4.75 1.75s-2.875 2.8125-4.0625 5-2.0625 4.75-2.6875 7.8125l-2.9375 13.75h-4.875l6.8125-31.8125h4l-.625 5.875h.3125c1.6875-2.3125 3.375-3.9375 5.0625-4.9375s3.375-1.5 5.1875-1.5c2.1875 0 3.875.625 5.0625 1.875s1.875 3 2.0625 5.25h.25c1.6875-2.4375 3.4375-4.25 5.3125-5.375 1.875-1.1875 3.75-1.75 5.6875-1.75 2.25-.0625 4.1875.625 5.5 1.9375z" fill="#fff"/><path d="m559.5 41.6875c1.375 1.3125 2 3.25 2 5.75 0 1.3125-.1875 3.0625-.625 5.1875l-4.1875 19.5h-4.9375l4.3125-20.0625c.375-2 .5625-3.4375.5625-4.25 0-1.1875-.3125-2.1875-1-2.875-.6875-.75-1.75-1.0625-3.125-1.0625-1.5625 0-3.125.5625-4.625 1.6875s-2.875 2.6875-4 4.75-2 4.5-2.625 7.3125l-3.125 14.5h-4.875l4.3125-20.0625c.3125-1.8125.5-3.125.5-3.9375 0-1.375-.3125-2.4375-.875-3.1875s-1.625-1.125-3.0625-1.125c-1.625 0-3.1875.5625-4.75 1.75s-2.875 2.8125-4.0625 5-2.0625 4.75-2.6875 7.8125l-2.9375 13.75h-4.875l6.8125-31.8125h4l-.625 5.875h.3125c1.6875-2.3125 3.375-3.9375 5-4.9375 1.6875-1 3.375-1.5 5.1875-1.5 2.1875 0 3.875.625 5.0625 1.875s1.875 3 2.0625 5.25h.25c1.6875-2.4375 3.4375-4.25 5.3125-5.375 1.875-1.1875 3.75-1.75 5.6875-1.75 2.375-.0625 4.25.625 5.625 1.9375z" fill="#fff"/><path d="m548.0625 105.125-13.25 15.625 7.3125 16.125h-4.875l-5.5625-12.5625-10 12.5625h-5.6875l13.8125-16.375-6.9375-15.375h4.9375l5 11.9375 9.625-11.9375z" fill="#fff"/><path d="m512.625 106.4375c1.5 1.3125 2.25 3.0625 2.25 5.375 0 3.5-1.625 6.1875-4.8125 8.1875s-7.8125 3-13.8125 3h-.9375l-.125 2.3125c0 2.5625.625 4.5 1.75 5.9375 1.1875 1.4375 3.0625 2.125 5.5625 2.125 1.1875 0 2.4375-.1875 3.75-.5s2.875-1 4.8125-1.9375v4.25c-1.8125.875-3.4375 1.4375-4.8125 1.8125s-2.9375.5-4.625.5c-3.5625 0-6.375-1.0625-8.375-3.1875s-3.0625-5-3.0625-8.75c0-3.625.6875-7.125 2.1875-10.4375 1.4375-3.3125 3.375-5.9375 5.75-7.8125s5-2.8125 7.875-2.8125 5.125.6875 6.625 1.9375zm-6.125 10.8125c2.375-1.125 3.5-2.8125 3.5-5 0-1-.375-1.875-1.0625-2.5625s-1.8125-1-3.3125-1c-2 0-3.875.9375-5.625 2.75s-3.0625 4.3125-4 7.5625h.375c4.375-.0625 7.75-.625 10.125-1.75z" fill="#fff"/><path d="m511.875 169.9375-6.75 31.8125h-3.875l.75-6.0625h-.25c-3.4375 4.4375-7.125 6.625-10.9375 6.625-2.6875 0-4.8125-.9375-6.3125-2.875-1.5625-1.9375-2.3125-4.5625-2.3125-7.875 0-4 .6875-7.75 2.0625-11.1875s3.25-6.125 5.6875-8.125 5.0625-2.9375 7.9375-2.9375c1.8125 0 3.375.5 4.75 1.4375s2.5 2.3125 3.25 4.125h.3125l1.9375-5h3.75zm-7.5625 10c0-2-.5625-3.5625-1.625-4.75s-2.5-1.75-4.25-1.75c-2 0-3.875.8125-5.625 2.5s-3.0625 3.9375-4.0625 6.75c-1 2.875-1.5 5.875-1.5 9 0 2.1875.4375 3.875 1.375 4.9375.875 1.125 2.1875 1.625 3.8125 1.625 1.875 0 3.75-.875 5.625-2.6875s3.375-4.125 4.5-7c1.1875-2.875 1.75-5.75 1.75-8.625z" fill="#fff"/><path d="m510 112.25c0 2.1875-1.1875 3.875-3.5 5-2.375 1.125-5.75 1.75-10.125 1.75h-.375c.9375-3.25 2.25-5.75 4-7.5625s3.625-2.75 5.625-2.75c1.5 0 2.625.3125 3.3125 1 .75.6875 1.0625 1.5 1.0625 2.5625z" fill="#000"/><path d="m509.6875 52.125c0 3.625-.6875 7.0625-2.0625 10.3125s-3.25 5.75-5.6875 7.5c-2.375 1.75-5.0625 2.625-8.0625 2.625-3.6875 0-6.625-1.125-8.75-3.25-2.125-2.1875-3.1875-5.1875-3.1875-8.9375 0-3.6875.6875-7.125 2.125-10.375s3.3125-5.6875 5.75-7.4375c2.375-1.75 5.0625-2.5625 8-2.5625 3.6875 0 6.5625 1.0625 8.6875 3.25 2.125 2.0625 3.1875 5.0625 3.1875 8.875zm-5-.6875c0-2.25-.625-4-1.8125-5.4375-1.1875-1.375-2.875-2.0625-4.9375-2.0625-2.125 0-4 .75-5.6875 2.125-1.6875 1.4375-3 3.4375-3.875 5.9375-.9375 2.5625-1.375 5.375-1.375 8.5 0 2.5625.625 4.5 1.875 5.875s3 2.0625 5.3125 2.0625c2 0 3.8125-.6875 5.4375-2.125s2.875-3.4375 3.75-6 1.3125-5.5 1.3125-8.875z" fill="#fff"/><path d="m502.875 46.0625c1.1875 1.375 1.8125 3.1875 1.8125 5.4375 0 3.375-.4375 6.3125-1.375 8.9375-.875 2.625-2.125 4.625-3.75 6-1.625 1.4375-3.4375 2.125-5.4375 2.125-2.3125 0-4.0625-.6875-5.3125-2.0625s-1.875-3.3125-1.875-5.875c0-3.125.4375-5.9375 1.375-8.5s2.1875-4.5625 3.875-5.9375c1.6875-1.4375 3.5625-2.125 5.6875-2.125 2.125-.125 3.75.625 5 2z" fill="#000"/><path d="m502.6875 175.1875c1.0625 1.1875 1.625 2.75 1.625 4.75 0 2.875-.5625 5.75-1.75 8.625s-2.6875 5.1875-4.5 7c-1.875 1.8125-3.75 2.6875-5.625 2.6875-1.625 0-2.9375-.5625-3.8125-1.625-.9375-1.0625-1.375-2.75-1.375-4.9375 0-3.125.5-6.125 1.5-9s2.375-5.0625 4.0625-6.75c1.75-1.625 3.625-2.5 5.625-2.5 1.75 0 3.125.5625 4.25 1.75z" fill="#000"/><path d="m486.9375 94.5-8.9375 42.375h-5.25l-13.375-35.4375h-.1875c-.625 4.25-1.3125 8.3125-2.125 12.125l-5 23.375h-4.6875l8.9375-42.4375h5.25l13.3125 35.375h.1875c.5625-4.3125 1.25-8.25 2.0625-11.75l5.0625-23.625z" fill="#fff"/><path d="m482.375 31.375-2 4.125c-2.6875-1.3125-5.375-2-8.125-2-3.375 0-6.375.9375-9.0625 2.8125-2.625 1.875-4.75 4.625-6.3125 8.25s-2.3125 7.5625-2.3125 11.8125c0 3.625.9375 6.5 2.8125 8.6875s4.5 3.25 7.8125 3.25c2.6875 0 5.8125-.5625 9.3125-1.6875v4.3125c-1.6875.625-3.25 1.0625-4.75 1.3125s-3.3125.4375-5.4375.4375c-4.6875 0-8.375-1.4375-11-4.3125-2.6875-2.875-4-6.8125-4-11.8125 0-5.0625 1-9.75 3.0625-14.0625s4.8125-7.625 8.25-9.9375 7.375-3.4375 11.6875-3.4375c3.75-.0625 7.125.6875 10.0625 2.25z" fill="#fff"/><path d="m482.375 161-2 4.125c-2.6875-1.3125-5.375-2-8.125-2-3.375 0-6.375.9375-9.0625 2.8125-2.625 1.875-4.75 4.625-6.3125 8.25s-2.3125 7.5625-2.3125 11.8125c0 3.625.9375 6.5 2.8125 8.6875s4.5 3.25 7.8125 3.25c2.6875 0 5.8125-.5625 9.3125-1.625v4.3125c-1.6875.625-3.25 1.0625-4.75 1.3125s-3.3125.4375-5.4375.4375c-4.6875 0-8.375-1.4375-11-4.3125-2.6875-2.875-4-6.8125-4-11.8125 0-5.0625 1-9.75 3.0625-14.0625s4.8125-7.625 8.25-9.9375c3.4375-2.25 7.375-3.4375 11.6875-3.4375 3.75-.125 7.125.625 10.0625 2.1875z" fill="#fff"/><path d="m414.4375 115.375v.1875.125c-.0625 8.5625-.625 20.375-.625 20.5-.5 12.4375-9.9375 21.8125-21.9375 21.8125h-40.875c-3.5 0-7.625-2.25-9.8125-4.375-1.375-1.3125-2.6875-2.9375-3.25-5.125h1.125c.75 0 1.375-.625 1.375-1.375.1875 1.5 1 2.875 2.625 4.5625 1.75 1.75 5.25 3.5625 7.875 3.5625h30.6875 10.1875c10.5 0 18.8125-8.25 19.25-19.1875 0-.125.5625-12.1875.625-20.6875-.0625-8.5-.625-20.9375-.625-21.0625-.4375-10.9375-8.75-19.1875-19.25-19.1875h-40.875c-2.625 0-6.1875 1.875-7.875 3.5625-1.5 1.5-2.5 2.875-2.625 4.75 0-.0625 0-.0625 0-.125 0-.75-.625-1.375-1.375-1.375h-1.125c.5-2.1875 1.875-3.8125 3.25-5.1875 2.125-2.125 6.3125-4.375 9.8125-4.375h40.875c12 0 21.4375 9.375 21.9375 21.8125 0 .125.5625 12.3125.625 20.875v.125z" fill="#fff"/><path d="m411.0625 94.3125c0 .125.5625 12.5.625 21.0625-.0625 8.5-.625 20.5625-.625 20.6875-.4375 10.9375-8.75 19.1875-19.25 19.1875h-10.1875-30.6875c-2.625 0-6.125-1.875-7.875-3.5625-1.6875-1.6875-2.5-3-2.625-4.5625 0-.0625 0-.1875 0-.25 0-.3125 0-.6875 0-1.0625 0-.1875 2.1875-16.8125 2.25-30.625v-.0625-.375-.0625c-.0625-13.8125-2.25-30-2.25-30.125-.0625-.375-.0625-.75 0-1.125v-.0625c.125-1.875 1.1875-3.25 2.625-4.75 1.75-1.75 5.25-3.5625 7.875-3.5625h40.875c10.5625.0625 18.8125 8.3125 19.25 19.25zm-1.0625 20.875c0-15.375-12.5-27.875-27.875-27.875s-27.875 12.5-27.875 27.875 12.5 27.875 27.875 27.875c15.3125 0 27.875-12.5 27.875-27.875z" fill="#000"/><path d="m382.0625 87.25c15.375 0 27.875 12.5 27.875 27.875s-12.5 27.875-27.875 27.875-27.875-12.5-27.875-27.875c0-15.3125 12.5-27.875 27.875-27.875zm25.1875 27.9375c0-13.875-11.3125-25.1875-25.1875-25.1875s-25.1875 11.3125-25.1875 25.1875 11.3125 25.1875 25.1875 25.1875 25.1875-11.3125 25.1875-25.1875z" fill="#fff"/><path d="m382.0625 90c13.875 0 25.1875 11.3125 25.1875 25.1875s-11.3125 25.1875-25.1875 25.1875-25.1875-11.3125-25.1875-25.1875c0-13.9375 11.3125-25.1875 25.1875-25.1875zm16.625 25.1875c0-9.125-7.4375-16.625-16.5625-16.625s-16.5625 7.4375-16.5625 16.625c0 9.125 7.4375 16.625 16.5625 16.625 9.125-.0625 16.5625-7.5 16.5625-16.625z" fill="#000"/><path d="m382.0625 98.5625c9.125 0 16.5625 7.4375 16.5625 16.625 0 9.125-7.4375 16.625-16.5625 16.625s-16.5625-7.4375-16.5625-16.625 7.4375-16.625 16.5625-16.625zm13.9375 16.625c0-7.625-6.25-13.875-13.875-13.875s-13.875 6.25-13.875 13.875 6.25 13.875 13.875 13.875 13.875-6.25 13.875-13.875z" fill="#fff"/><path d="m382.0625 101.25c7.625 0 13.875 6.25 13.875 13.875s-6.25 13.875-13.875 13.875-13.875-6.25-13.875-13.875 6.25-13.875 13.875-13.875zm8.375 13.9375c0-4.625-3.75-8.375-8.375-8.375s-8.375 3.75-8.375 8.375 3.75 8.375 8.375 8.375 8.375-3.8125 8.375-8.375z" fill="#000"/><path d="m382.0625 106.8125c4.625 0 8.375 3.75 8.375 8.375s-3.75 8.375-8.375 8.375-8.375-3.75-8.375-8.375 3.75-8.375 8.375-8.375zm5.6875 8.375c0-3.125-2.5625-5.6875-5.6875-5.6875s-5.6875 2.5625-5.6875 5.6875 2.5625 5.6875 5.6875 5.6875 5.6875-2.5625 5.6875-5.6875z" fill="#fff"/><path d="m382.0625 109.5c3.125 0 5.6875 2.5625 5.6875 5.6875s-2.5625 5.6875-5.6875 5.6875-5.6875-2.5625-5.6875-5.6875 2.5625-5.6875 5.6875-5.6875z" fill="#000"/><path d="m342.6875 115.125c-.0625 13.875-2.25 30.5-2.25 30.6875-.0625.375-.0625.6875 0 1.0625-.125-.625-.6875-1.0625-1.3125-1.0625h-1.375c0-.125 0-.1875 0-.3125 0-.1875 2.25-16.875 2.25-30.5s-2.1875-29.875-2.25-30.0625c0-.0625 0-.1875 0-.25h1.375c.6875 0 1.25-.5 1.3125-1.125v1.125c0 .125 2.1875 16.375 2.25 30.125v.0625z" fill="#fff"/><path d="m340.4375 147.0625c0 .75-.625 1.375-1.375 1.375h-1.125c-.1875-.8125-.3125-1.6875-.1875-2.6875h1.375c.625 0 1.1875.4375 1.3125 1.0625z" fill="#fff"/><path d="m340.4375 147.0625c0-.0625 0-.1875 0-.25z" fill="#fff"/><path d="m340.4375 83.25v.125.0625c-.125.625-.6875 1.125-1.3125 1.125h-1.375c-.0625-1 0-1.875.1875-2.6875h1.125c.75.0625 1.375.625 1.375 1.375z" fill="#fff"/><path d="m337.75 84.875c0 .1875 2.1875 16.375 2.25 30.0625 0 13.625-2.25 30.3125-2.25 30.5v.3125h-1.1875c.0625-1.0625.25-2.1875.4375-3.5625.3125-2.5.8125-5.75 1.125-11.25.25-3.9375.375-8.9375.375-15.6875 0-6.8125-.1875-11.875-.375-15.75-.3125-5.25-.75-8.4375-1.0625-10.875-.1875-1.5-.375-2.6875-.4375-3.9375h1.1875c-.0625 0-.0625.125-.0625.1875z" fill="#000"/><path d="m338.4375 115.25c0 6.6875-.125 11.75-.375 15.6875 0-.0625 0-.0625 0-.125 0-.75-.625-1.375-1.375-1.375h-1.25c.1875-3.6875.3125-8.25.3125-14.1875 0-6-.125-10.625-.3125-14.3125h1.25c.75 0 1.375-.625 1.375-1.375 0-.0625 0-.0625 0-.125.25 3.9375.375 9 .375 15.8125z" fill="#000"/><path d="m338.0625 130.75v.125c-.0625.6875-.625 1.1875-1.375 1.1875h-1.4375c.0625-.8125.125-1.75.125-2.6875h1.25c.8125.0625 1.4375.625 1.4375 1.375z" fill="#fff"/><path d="m338.0625 130.9375c-.3125 5.5-.75 8.75-1.125 11.25-.1875 1.375-.3125 2.4375-.4375 3.5625h1.1875c-.0625 1 0 1.875.1875 2.6875h-2.75c-.75 0-1.375-.625-1.375-1.375 0-1.75.1875-3.3125.5-5.25.3125-2.25.6875-5.125 1-9.6875h1.4375c.75 0 1.3125-.5 1.375-1.1875z" fill="#fff"/><path d="m338.0625 99.4375v.125c0 .75-.625 1.375-1.375 1.375h-1.25c-.0625-.9375-.125-1.875-.125-2.6875h1.4375c.6875 0 1.25.5 1.3125 1.1875z" fill="#fff"/><path d="m337 88.5625c.3125 2.4375.75 5.625 1.0625 10.875-.0625-.6875-.625-1.1875-1.375-1.1875h-1.4375c-.3125-4.3125-.6875-7.125-.9375-9.3125-.3125-2.0625-.5-3.75-.5-5.6875 0-.75.625-1.375 1.375-1.375h2.75c-.1875.8125-.3125 1.6875-.1875 2.6875h-1.1875c.0625 1.3125.1875 2.5.4375 4z" fill="#fff"/><path d="m334.9375 129.4375h.5c-.0625.9375-.125 1.875-.125 2.6875h-1.375c-.9375 0-1.6875-.75-1.6875-1.6875v-3.5h1.375c.75 0 1.375-.625 1.375-1.375v3.875z" fill="#fff"/><path d="m335.4375 100.9375h-.5v3.8125c0-.75-.625-1.375-1.375-1.375h-1.375v-3.5c0-.9375.75-1.6875 1.6875-1.6875h1.375c.0625.875.125 1.8125.1875 2.75z" fill="#fff"/><path d="m334.9375 104.75v20.8125c0 .75-.625 1.375-1.375 1.375h-1.375v-2.6875-18.125-2.6875h1.375c.75 0 1.375.5625 1.375 1.3125z" fill="#fff"/><path d="m332.1875 124.25v2.6875h-11c-.75 0-1.375-.625-1.375-1.375v-20.8125c0-.75.625-1.375 1.375-1.375h11v2.6875h-9.6875v18.125h9.6875z" fill="#fff"/><path d="m322.5625 106.125h9.6875v18.125h-9.6875z" fill="#000"/><path d="m299.25 115.1875v23.5625l-35.375-23.5625 35.375-23.625z" fill="#ffd531"/><path d="m242.75 115.4375c0 6.875-1.125 22.125-3.5625 34.6875-4.1875 21.4375-15.6875 24.4375-27.4375 24.4375h-151.6875c-.0625 0-.0625 0-.125 0-4.0625 0-15.625-.125-22.875-10.625-5.0625-7.375-6.5625-19.25-7.25-27.5625-.625-7.4375-.5625-12.25-.5625-17.3125v-4.875c0-6 0-9.9375.625-17.375 1-11.8125 2.5625-24.9375 8.5-31.9375 6.4375-7.5 13.0625-9 21.625-9h151.6875c10.125 0 22.5 5.3125 25.625 16.9375 1.75 6.4375 3.0625 15.1875 4 23.3125 1 8 1.4375 15.5 1.4375 19.3125zm-6.1875 34.125c2.4375-12.375 3.5-27.375 3.5-34.125 0-6.6875-1.8125-29.0625-5.3125-42-1.5625-5.9375-5.6875-9.625-10.25-11.9375-4.5-2.25-9.5-3.0625-12.75-3.0625h-151.6875c-8 0-13.75 1.3125-19.5625 8.0625-5.5 6.375-6.9375 19.0625-7.875 30.4375-.625 7.3125-.625 11.25-.625 17.1875v4.9375c0 5.25-.0625 9.8125.5 17.125.625 8 2.0625 19.375 6.75 26.1875 6.4375 9.375 16.9375 9.4375 20.5625 9.4375h.125 151.8125c12.625 0 21.1875-3.6875 24.8125-22.25z" fill="#fff"/><path d="m240.0625 115.4375c0 6.75-1.0625 21.8125-3.5 34.125-3.625 18.5-12.1875 22.25-24.8125 22.25h-151.75c-.0625 0-.0625 0-.125 0-3.625 0-14.125-.0625-20.5625-9.4375-4.6875-6.8125-6.125-18.1875-6.75-26.1875-.5625-7.3125-.5625-11.8125-.5-17.125v-4.9375c0-5.9375 0-9.8125.625-17.1875.9375-11.375 2.4375-24.0625 7.875-30.4375 5.8125-6.75 11.5625-8.0625 19.5625-8.0625h151.6875c3.25 0 8.25.75 12.75 3.0625 4.5 2.25 8.625 6 10.25 11.9375 3.4375 12.9375 5.25 35.3125 5.25 42zm-11.6875 0c0-23.0625-18.75-41.8125-41.8125-41.8125-8.25 0-16.25 2.4375-23.125 6.9375 0-.0625-.0625-.125-.0625-.25-.4375-1.125-1.875-3.0625-6.75-3.0625h-86.75c-14.3125 0-26 11.6875-26 26v12.1875 12.1875c0 14.375 11.6875 26 26 26h86.75c4.875 0 6.3125-1.9375 6.75-3.125 0-.0625.0625-.125.0625-.1875 6.8125 4.5 14.875 6.9375 23.125 6.9375 23 .0625 41.8125-18.75 41.8125-41.8125z" fill="#000"/><path d="m186.5 73.625c23.0625 0 41.8125 18.75 41.8125 41.8125s-18.75 41.875-41.8125 41.875c-8.25 0-16.3125-2.4375-23.125-6.9375.4375-1.5625-.1875-3.3125-1.75-4.6875 6.9375 5.75 15.8125 8.9375 24.875 8.9375 21.5625 0 39.125-17.5625 39.125-39.125s-17.5625-39.125-39.125-39.125c-9.0625 0-17.875 3.1875-24.875 8.875 1.5625-1.375 2.25-3.125 1.75-4.6875 6.875-4.5 14.9375-6.9375 23.125-6.9375z" fill="#fff"/><path d="m186.5 76.3125c21.5625 0 39.125 17.5625 39.125 39.125s-17.5625 39.125-39.125 39.125c-9.0625 0-17.9375-3.1875-24.875-8.9375l-.3125-.25c-3.8125-3.1875-6.9375-7-9.25-11.3125-3.0625-5.6875-4.6875-12.125-4.6875-18.625s1.625-13 4.6875-18.625c.5-.9375 1-1.8125 1.625-2.6875.25-.4375.5625-.8125.8125-1.25l.5625-.75c1.625-2.25 3.5625-4.3125 5.8125-6.25.1875-.125.3125-.3125.5-.4375l.25-.25c7-5.6875 15.8125-8.875 24.875-8.875zm21.8125 39.125c0-12-9.75-21.8125-21.8125-21.8125-9.75 0-18.375 6.5-21 15.875-.5625 1.875-.8125 3.875-.8125 5.875s.25 4 .8125 5.875c2.625 9.375 11.25 15.875 21 15.875 12 .125 21.8125-9.625 21.8125-21.6875z" fill="#000"/><path d="m186.5 93.6875c12 0 21.8125 9.75 21.8125 21.8125 0 12-9.75 21.8125-21.8125 21.8125-9.75 0-18.375-6.5625-21-15.875l1.6875-.5.9375-.25c2.3125 8.1875 9.875 13.9375 18.375 13.9375 10.5 0 19.0625-8.5625 19.0625-19.0625s-8.5625-19.0625-19.0625-19.0625c-8.5 0-16.0625 5.75-18.375 13.9375l-1.3125-.375-1.3125-.375c2.625-9.5 11.3125-16 21-16z" fill="#fff"/><path d="m186.5 96.375c10.5 0 19.0625 8.5625 19.0625 19.0625s-8.5625 19.0625-19.0625 19.0625c-8.5 0-16.0625-5.75-18.375-13.9375l-.9375.25.9375-.25c-.5-1.6875-.6875-3.4375-.6875-5.1875s.25-3.5.6875-5.125l-1.3125-.375 1.3125.375c2.3125-8.125 9.875-13.875 18.375-13.875zm7.1875 19.0625c0-3.9375-3.25-7.1875-7.1875-7.1875s-7.1875 3.25-7.1875 7.1875 3.25 7.1875 7.1875 7.1875c4 0 7.1875-3.1875 7.1875-7.1875z" fill="#000"/><path d="m186.5 108.25c3.9375 0 7.1875 3.25 7.1875 7.1875s-3.25 7.1875-7.1875 7.1875-7.1875-3.25-7.1875-7.1875 3.25-7.1875 7.1875-7.1875zm4.5 7.1875c0-2.5-2-4.5-4.5-4.5s-4.5 2-4.5 4.5 2 4.5 4.5 4.5 4.5-2 4.5-4.5z" fill="#fff"/><circle cx="186.5" cy="115.4375" fill="#000" r="4.5"/><path d="m166.8125 109.9375 1.3125.375c-.5 1.625-.6875 3.375-.6875 5.125s.25 3.5.6875 5.1875l-.9375.25-1.6875.4375c-.5625-1.875-.8125-3.875-.8125-5.875s.25-4 .8125-5.875z" fill="#fff"/><path d="m165.5625 121.3125 1.6875-.4375-1.6875.4375c0 .0625 0 .0625 0 0z" fill="#fff"/><path d="m166.8125 109.9375-1.3125-.375z" fill="#fff"/><path d="m161.625 145.6875c1.5625 1.3125 2.25 3.125 1.75 4.6875-1.1875-.8125-2.375-1.625-3.4375-2.5625 0 0-.0625-.0625-.0625-.0625l1.4375-2.3125.0625.0625z" fill="#fff"/><path d="m163.4375 80.5625c.4375 1.5625-.1875 3.3125-1.75 4.6875l-.25.25-1.6875-2.125.0625-.0625.125-.125c1.0625-.9375 2.25-1.8125 3.5-2.625z" fill="#fff"/><path d="m163.375 80.3125c0 .0625.0625.125.0625.25-1.25.8125-2.375 1.6875-3.5 2.625l-.125.125c.5625-.5.9375-.9375 1.0625-1.375.0625-.25.125-.5 0-.625-.25-.625-1.4375-1.3125-4.1875-1.3125h-86.8125c-12.875 0-23.3125 10.4375-23.3125 23.3125v12.1875h-2.6875v-12.1875c0-14.3125 11.6875-26 26-26h86.75c4.875-.0625 6.3125 1.875 6.75 3z" fill="#fff"/><path d="m163.4375 150.375c0 .0625-.0625.125-.0625.1875-.4375 1.1875-1.875 3.125-6.75 3.125h-86.75c-14.3125 0-26-11.6875-26-26v-12.1875h2.6875v12.1875c0 12.875 10.4375 23.3125 23.3125 23.3125h86.75c2.75 0 4-.6875 4.1875-1.3125.1875-.5-.1875-1.25-.875-1.875 1.125.875 2.25 1.75 3.5 2.5625z" fill="#fff"/><path d="m159.6875 83.375 1.6875 2.125c-.1875.125-.3125.3125-.5.4375-2.1875 1.875-4.125 4-5.8125 6.25-.1875.25-.375.5-.5625.75-.3125.375-.5625.8125-.8125 1.25-.5625.875-1.125 1.75-1.625 2.6875-3.0625 5.6875-4.6875 12.125-4.6875 18.625s1.625 13 4.6875 18.625c2.375 4.3125 5.5 8.125 9.25 11.3125l-.0625-.0625-1.4375 2.3125c-2.4375-2.0625-4.5625-4.1875-6.375-6.5625-.1875-.25-.4375-.5625-.625-.8125-.75-1.0625-1.5-2.125-2.1875-3.25-.3125-.5625-.6875-1.125-1-1.6875-3.3125-6.0625-5.0625-12.9375-5.0625-19.9375s1.75-13.875 5.0625-19.9375c2.625-4.625 5.9375-8.6875 10.0625-12.125z" fill="#fff"/><path d="m160.8125 81.25c.0625.1875.0625.4375 0 .625-.125.4375-.5625.9375-1.1875 1.4375-4.0625 3.4375-7.375 7.5-9.875 12.125-3.3125 6.0625-5.0625 12.9375-5.0625 19.9375s1.75 13.875 5.0625 19.9375c.3125.5625.625 1.125 1 1.6875.6875 1.125 1.4375 2.1875 2.1875 3.25.1875.25.375.5625.625.8125 1.8125 2.3125 3.8125 4.4375 6.125 6.375l.25.25s.0625 0 .0625.0625c.6875.625 1.0625 1.375.875 1.875-.25.625-1.4375 1.3125-4.1875 1.3125h-86.8125c-12.875 0-23.3125-10.4375-23.3125-23.3125v-12.1875-12.1875c0-12.875 10.4375-23.3125 23.3125-23.3125h86.75c2.75 0 4 .75 4.1875 1.3125zm-27.5625 46.125v-1.1875-.4375l-.25-.3125c-2-3-3-6.4375-3-10s1.0625-7.0625 3-10l.25-.3125v-.4375-1.5625c0-8.1875-6.625-14.8125-14.8125-14.8125h-46.8125c-8.1875 0-14.8125 6.625-14.8125 14.8125v24.25c0 8.125 6.625 14.8125 14.8125 14.8125h7.9375 27.5625 11.3125c8.1875 0 14.8125-6.625 14.8125-14.8125z" fill="#000"/><path d="m160.8125 81.9375c-.125.4375-.5.875-1.0625 1.375l-.0625.0625h-.0625c.625-.5 1-1 1.1875-1.4375z" fill="#fff"/><path d="m159.9375 147.8125c0-.0625 0-.0625 0 0l-.3125-.25c-2.25-1.9375-4.3125-4.0625-6.125-6.375 1.8125 2.375 3.9375 4.5 6.375 6.5625 0 0 .0625 0 .0625.0625z" fill="#fff"/><path d="m160.875 85.875c-2.25 1.9375-4.125 4-5.8125 6.25 1.6875-2.25 3.625-4.375 5.8125-6.25z" fill="#fff"/><path d="m154.5 92.875c-.3125.375-.5625.8125-.8125 1.25.25-.4375.5625-.8125.8125-1.25z" fill="#fff"/><path d="m150.6875 137.125c.6875 1.125 1.375 2.1875 2.1875 3.25-.75-1.0625-1.5-2.125-2.1875-3.25z" fill="#fff"/><path d="m133.25 126.1875v1.1875c0 8.125-6.625 14.8125-14.8125 14.8125h-11.3125v-1.375h2.6875v-1.375h8.5625c6.6875 0 12.125-5.4375 12.125-12.0625v-.75c.0625.125.125.25.25.375l1.125-.75h1.375z" fill="#fff"/><path d="m133.25 125.8125v.375h-1.375l1.1875-.75z" fill="#fff"/><path d="m133.25 104.6875v.4375l-.1875.3125-1.1875-.75z" fill="#fff"/><path d="m133.25 103.125v1.5625h-1.375l-1.125-.75c-.0625.125-.125.25-.25.375v-1.1875c0-6.6875-5.4375-12.0625-12.125-12.0625h-46.8125c-6.6875 0-12.125 5.4375-12.125 12.0625v24.25c0 6.6875 5.4375 12.0625 12.125 12.0625h7.9375v1.375 1.375h-7.9375c-8.1875 0-14.8125-6.625-14.8125-14.8125v-24.25c0-8.1875 6.625-14.8125 14.8125-14.8125h46.8125c8.25.0625 14.875 6.6875 14.875 14.8125z" fill="#fff"/><path d="m131.875 104.6875 1.125.75c-2 2.9375-3 6.4375-3 10s1.0625 7.0625 3 10l-1.125.75h-1.375v.375c-.125-.1875-.1875-.3125-.3125-.5-.1875-.25-.3125-.5625-.4375-.8125-.125-.1875-.1875-.375-.3125-.5625-.0625-.1875-.125-.3125-.25-.5-.0625-.1875-.1875-.375-.25-.5625s-.125-.375-.25-.5625c-.0625-.1875-.125-.375-.1875-.5625s-.125-.375-.1875-.5625c-.0625-.25-.125-.4375-.25-.6875-.0625-.1875-.125-.4375-.1875-.625 0-.0625-.0625-.1875-.0625-.25-.0625-.1875-.0625-.375-.125-.5-.125-.4375-.1875-.875-.25-1.3125 0-.125-.0625-.3125-.0625-.4375s-.0625-.25-.0625-.375c-.0625-.75-.125-1.5-.125-2.25 0-.875.0625-1.6875.125-2.5625 0-.1875.0625-.375.0625-.5.0625-.4375.125-.875.25-1.3125 0-.125.0625-.25.0625-.375.0625-.1875.0625-.375.125-.5l.1875-.75c.0625-.25.125-.4375.25-.6875v-.0625c.0625-.1875.125-.4375.25-.625 0-.0625.0625-.125.0625-.125.0625-.1875.1875-.375.25-.625 0 0 0 0 0-.0625.125-.25.1875-.4375.3125-.6875.0625-.1875.1875-.3125.25-.5.0625-.125.125-.25.25-.4375.125-.25.3125-.5625.5-.8125.125-.1875.1875-.375.3125-.5v.375h1.4375z" fill="#fff"/><path d="m131.875 104.6875h-1.375v-.375c.0625-.125.125-.25.25-.375z" fill="#fff"/><path d="m131.875 126.1875-1.125.75c-.0625-.125-.125-.25-.25-.375v-.375z" fill="#fff"/><path d="m130.5625 126.625v.75c0 6.6875-5.4375 12.0625-12.125 12.0625h-8.5625v-.6875c0-4.4375-3.625-8.0625-8.0625-8.0625h-14.125c-4.4375 0-8.0625 3.625-8.0625 8.0625v.6875h-7.9375c-6.6875 0-12.125-5.4375-12.125-12.0625v-24.25c0-6.6875 5.4375-12.0625 12.125-12.0625h46.8125c6.6875 0 12.125 5.4375 12.125 12.0625v1.1875c-.125.1875-.1875.375-.3125.5-.1875.25-.3125.5625-.5.8125-.0625.125-.125.25-.25.4375-.0625.1875-.1875.3125-.25.5-.125.25-.1875.4375-.3125.6875v.0625c-.0625.1875-.1875.375-.25.625 0 .0625-.0625.0625-.0625.125-.0625.1875-.125.4375-.25.625v.0625c-.0625.25-.125.4375-.25.6875-.0625.25-.125.5-.1875.75-.0625.1875-.0625.3125-.125.5 0 .125-.0625.25-.0625.375-.125.4375-.1875.875-.25 1.3125 0 .1875-.0625.375-.0625.5-.125.8125-.125 1.6875-.125 2.5625 0 .75.0625 1.5.125 2.25 0 .125 0 .25.0625.375 0 .125 0 .3125.0625.4375.0625.4375.125.875.25 1.3125 0 .1875.0625.375.125.5 0 .0625.0625.1875.0625.25.0625.25.125.4375.1875.625.0625.25.125.4375.25.6875l.1875.5625.1875.5625c.0625.1875.125.375.25.5625.0625.1875.1875.375.25.5625s.125.3125.25.5c.0625.1875.1875.375.3125.5625.125.25.3125.5625.4375.8125-.0625.25.0625.4375.1875.625z" fill="#000"/><g fill="#fff"><path d="m130.5625 104.3125c-.125.1875-.1875.375-.3125.5.0625-.125.1875-.3125.3125-.5z"/><path d="m130.25 126.0625c.125.1875.1875.375.3125.5-.125-.125-.25-.3125-.3125-.5z"/><path d="m129.4375 124.6875c.0625.1875.1875.375.3125.5625-.0625-.1875-.1875-.375-.3125-.5625z"/><path d="m129.75 105.6875c-.0625.125-.125.25-.25.4375.125-.1875.1875-.3125.25-.4375z"/><path d="m129.3125 106.625c-.125.25-.1875.4375-.3125.6875.0625-.25.1875-.5.3125-.6875z"/><path d="m129 123.625c.0625.1875.1875.375.25.5625-.125-.1875-.1875-.375-.25-.5625z"/><path d="m128.75 123.0625c.0625.1875.125.375.25.5625-.125-.1875-.1875-.375-.25-.5625z"/><path d="m129 107.3125c-.0625.1875-.1875.375-.25.625.0625-.25.125-.4375.25-.625z"/><path d="m128.6875 108.0625c-.0625.1875-.125.4375-.25.625.0625-.1875.125-.4375.25-.625z"/><path d="m128.375 122 .1875.5625c-.0625-.25-.125-.4375-.1875-.5625z"/><path d="m128.4375 108.75c-.0625.25-.125.4375-.25.6875.0625-.25.1875-.4375.25-.6875z"/><path d="m128.125 121.25c.0625.25.125.5.25.6875-.125-.1875-.1875-.4375-.25-.6875z"/><path d="m128.1875 109.4375c-.0625.25-.125.5-.1875.75z"/><path d="m127.9375 120.625c.0625.1875.125.4375.1875.625-.0625-.1875-.125-.375-.1875-.625z"/><path d="m128 110.1875c-.0625.1875-.0625.3125-.125.5 0-.1875.0625-.375.125-.5z"/><path d="m127.8125 119.875c.0625.1875.0625.375.125.5-.0625-.1875-.125-.375-.125-.5z"/><path d="m127.875 110.6875c0 .125-.0625.25-.0625.375 0-.125 0-.25.0625-.375z"/><path d="m127.5625 112.375c0 .1875-.0625.375-.0625.5 0-.125 0-.3125.0625-.5z"/><path d="m127.5 118.0625c0 .125 0 .3125.0625.4375-.0625-.125-.0625-.3125-.0625-.4375z"/><path d="m127.4375 117.6875c0 .125 0 .25.0625.375-.0625-.125-.0625-.25-.0625-.375z"/><path d="m107.1875 139.5h2.6875v1.375h-2.6875z"/><path d="m109.875 138.8125v.6875h-2.6875v-.6875c0-3-2.4375-5.375-5.375-5.375h-14.125c-2.9375 0-5.375 2.375-5.375 5.375v.6875h-2.6875v-.6875c0-4.4375 3.625-8.0625 8.0625-8.0625h14.125c4.4375 0 8.0625 3.5625 8.0625 8.0625z"/><path d="m107.1875 140.8125v1.375h-27.5625v-1.375h2.6875v-1.3125h24.875z"/></g><path d="m107.1875 138.8125v.6875h-24.875v-.6875c0-3 2.4375-5.375 5.375-5.375h14.125c2.9375 0 5.375 2.375 5.375 5.375z" fill="#000"/><path d="m79.625 139.5h2.6875v1.375h-2.6875z" fill="#fff"/></g><path d="m36.75.3125c-20.0625 0-36.4375 16.3125-36.4375 36.4375v156.875c0 20.0625 16.3125 36.4375 36.4375 36.4375h854.25c20.0625 0 36.4375-16.3125 36.4375-36.4375v-156.875c0-20.0625-16.3125-36.4375-36.4375-36.4375z" stroke="#ffd531" stroke-width="3"/></g><g fill="#ffd531" fill-rule="nonzero" transform="translate(345 300.625)"><path d="m.0625 39.3125v-39.25h6.4375v33.75h16.625v5.5z"/><path d="m43.5 39.875c-4.625 0-8.25-1.375-10.8125-4.0625-2.625-2.6875-3.9375-6.375-3.9375-11.125 0-4.875 1.1875-8.6875 3.625-11.4375s5.75-4.1875 9.9375-4.1875c3.9375 0 7 1.1875 9.3125 3.5625 2.25 2.375 3.4375 5.6875 3.4375 9.8125v3.4375h-19.8125c.0625 2.875.875 5.125 2.3125 6.625 1.4375 1.5625 3.5625 2.3125 6.1875 2.3125 1.75 0 3.375-.1875 4.875-.5s3.125-.875 4.875-1.625v5.125c-1.5625.75-3.125 1.25-4.6875 1.5625-1.4375.375-3.25.5-5.3125.5zm-1.125-26c-2 0-3.625.625-4.8125 1.9375-1.1875 1.25-1.9375 3.125-2.1875 5.5625h13.5c-.0625-2.4375-.625-4.3125-1.75-5.5625-1.1875-1.3125-2.75-1.9375-4.75-1.9375z"/><path d="m82.1875 39.3125-1.25-4.125h-.1875c-1.4375 1.8125-2.875 3.0625-4.3125 3.6875s-3.3125 1-5.5625 1c-2.9375 0-5.1875-.8125-6.8125-2.375s-2.4375-3.8125-2.4375-6.6875c0-3.0625 1.125-5.375 3.4375-6.9375 2.25-1.5625 5.75-2.4375 10.375-2.5625l5.125-.1875v-1.5625c0-1.875-.4375-3.3125-1.3125-4.25s-2.25-1.4375-4.125-1.4375c-1.5 0-3 .25-4.375.6875s-2.75 1-4 1.5625l-2.0625-4.5c1.625-.8125 3.375-1.5 5.3125-1.9375s3.75-.6875 5.4375-.6875c3.75 0 6.625.8125 8.5625 2.5 1.9375 1.625 2.875 4.25 2.875 7.75v20h-4.6875zm-9.375-4.25c2.3125 0 4.125-.625 5.5-1.9375 1.375-1.25 2.0625-3.0625 2.0625-5.375v-2.5625l-3.8125.1875c-3 .125-5.125.625-6.5 1.5s-2 2.25-2 4.0625c0 1.3125.375 2.375 1.1875 3.0625s2 1.0625 3.5625 1.0625z"/><path d="m112 9.125c1.25 0 2.3125.0625 3.125.25l-.625 5.875c-.875-.1875-1.8125-.3125-2.8125-.3125-2.5 0-4.5625.8125-6.125 2.5-1.5625 1.625-2.375 3.8125-2.375 6.4375v15.5h-6.3125v-29.6875h4.9375l.8125 5.25h.3125c1-1.75 2.25-3.1875 3.875-4.1875 1.625-1.125 3.3125-1.625 5.1875-1.625z"/><path d="m148.125 39.3125h-6.3125v-18.25c0-2.3125-.4375-4-1.375-5.125s-2.375-1.6875-4.375-1.6875c-2.6875 0-4.625.8125-5.875 2.375s-1.875 4.1875-1.875 7.9375v14.8125h-6.3125v-29.6875h4.9375l.875 3.875h.3125c.875-1.4375 2.1875-2.5 3.8125-3.25s3.5-1.125 5.5-1.125c7.125 0 10.6875 3.625 10.6875 10.875z"/><path d="m199 39.3125h-6.3125v-18.3125c0-2.25-.4375-4-1.3125-5.0625-.875-1.125-2.1875-1.6875-4-1.6875-2.4375 0-4.25.8125-5.375 2.375s-1.6875 4.25-1.6875 7.9375v14.8125h-6.3125v-29.6875h4.9375l.875 3.875h.3125c.8125-1.4375 2-2.5 3.5625-3.25s3.3125-1.125 5.1875-1.125c4.5625 0 7.5625 1.5625 9.0625 4.6875h.4375c.875-1.4375 2.125-2.625 3.6875-3.4375s3.4375-1.25 5.5-1.25c3.5625 0 6.125.875 7.75 2.6875s2.4375 4.5 2.4375 8.1875v19.375h-6.3125v-18.3125c0-2.25-.4375-4-1.3125-5.0625-.875-1.125-2.1875-1.6875-4.0625-1.6875-2.4375 0-4.25.75-5.375 2.3125-1.125 1.5-1.6875 3.875-1.6875 7.0625z"/><path d="m254.25 24.4375c0 4.875-1.25 8.625-3.75 11.375s-5.9375 4.0625-10.375 4.0625c-2.75 0-5.25-.625-7.375-1.875s-3.75-3.0625-4.9375-5.375c-1.125-2.375-1.75-5.0625-1.75-8.1875 0-4.8125 1.25-8.5625 3.6875-11.25 2.5-2.6875 5.9375-4.0625 10.4375-4.0625 4.3125 0 7.6875 1.375 10.1875 4.125 2.625 2.75 3.875 6.5 3.875 11.1875zm-21.625 0c0 6.875 2.5625 10.3125 7.625 10.3125 5 0 7.5-3.4375 7.5-10.3125 0-6.8125-2.5-10.1875-7.5625-10.1875-2.625 0-4.5625.875-5.75 2.625s-1.8125 4.3125-1.8125 7.5625z"/><path d="m277.9375 9.125c1.25 0 2.3125.0625 3.125.25l-.625 5.875c-.875-.1875-1.8125-.3125-2.8125-.3125-2.5 0-4.5625.8125-6.125 2.5-1.5625 1.625-2.375 3.8125-2.375 6.4375v15.5h-6.3125v-29.6875h4.9375l.8125 5.25h.3125c1-1.75 2.25-3.1875 3.875-4.1875 1.625-1.125 3.375-1.625 5.1875-1.625z"/><path d="m300.9375 39.875c-4.625 0-8.25-1.375-10.8125-4.0625-2.625-2.6875-3.9375-6.375-3.9375-11.125 0-4.875 1.1875-8.6875 3.625-11.4375s5.75-4.1875 9.9375-4.1875c3.9375 0 7 1.1875 9.3125 3.5625 2.25 2.375 3.4375 5.6875 3.4375 9.8125v3.4375h-19.8125c.0625 2.875.875 5.125 2.3125 6.625 1.4375 1.5625 3.5625 2.3125 6.1875 2.3125 1.75 0 3.375-.1875 4.875-.5s3.125-.875 4.875-1.625v5.125c-1.5625.75-3.125 1.25-4.6875 1.5625-1.5.375-3.3125.5-5.3125.5zm-1.1875-26c-2 0-3.625.625-4.8125 1.9375-1.1875 1.25-1.9375 3.125-2.1875 5.5625h13.5c-.0625-2.4375-.625-4.3125-1.75-5.5625-1.125-1.3125-2.75-1.9375-4.75-1.9375z"/></g></g></svg>