<svg enable-background="new 0 0 46 46" viewBox="0 0 46 46" xmlns="http://www.w3.org/2000/svg"><g fill="none" stroke="#fff" stroke-linejoin="round" stroke-miterlimit="10"><g stroke-width=".75"><path d="m32.2 24c0 5.1-4.1 9.2-9.2 9.2s-9.1-4.1-9.1-9.2c0-.9.1-1.7.3-2.5.1-.4.3-.8.5-1.2.1-.2.2-.5.3-.7 1.6-2.8 4.6-4.7 8-4.7 4.4 0 8 3.1 8.9 7.2.2.6.3 1.2.3 1.9z"/><path d="m34.9 28.3c0 1.1.4 2.1 1.2 2.8.7.7 1.7 1.2 2.8 1.2s2.1-.4 2.8-1.2c.7-.7 1.2-1.7 1.2-2.8s-.4-2.1-1.2-2.8c-.7-.7-1.9-1.2-2.8-1.4-1.1-.3-4-1.2-4-4 0-1.1.4-2.1 1.2-2.8.7-.7 1.7-1.2 2.8-1.2s2.1.4 2.8 1.2c.7.7 1.2 1.7 1.2 2.8"/><path d="m3.1 28.3c0 1.1.4 2.1 1.2 2.8s1.7 1.2 2.8 1.2 2.1-.4 2.8-1.2 1.2-1.7 1.2-2.8-.4-2.1-1.2-2.8c-.7-.7-1.9-1.2-2.8-1.4-1.1-.3-4-1.2-4-4 0-1.1.4-2.1 1.2-2.8s1.7-1.3 2.8-1.3 2.1.4 2.8 1.2 1.2 1.7 1.2 2.8"/></g><g stroke-width="2"><path d="m23 18.4v11.2"/><path d="m28.6 24h-11.2"/></g></g></svg>